<svg width="3121" height="798" xmlns="http://www.w3.org/2000/svg" style="align-content: normal; align-items: normal; align-self: auto; alignment-baseline: auto; animation-delay: 0s; animation-direction: normal; animation-duration: 0s; animation-fill-mode: none; animation-iteration-count: 1; animation-name: none; animation-play-state: running; animation-timing-function: ease; appearance: none; backdrop-filter: none; backface-visibility: visible; background-attachment: scroll; background-blend-mode: normal; background-clip: border-box; background-color: rgba(0, 0, 0, 0); background-image: none; background-origin: padding-box; background-position: 0% 0%; background-repeat: repeat; background-size: auto; baseline-shift: 0px; block-size: 798px; border-block-end-color: rgb(0, 0, 0); border-block-end-style: none; border-block-end-width: 0px; border-block-start-color: rgb(0, 0, 0); border-block-start-style: none; border-block-start-width: 0px; border-bottom-color: rgb(0, 0, 0); border-bottom-left-radius: 0px; border-bottom-right-radius: 0px; border-bottom-style: none; border-bottom-width: 0px; border-collapse: separate; border-image-outset: 0; border-image-repeat: stretch; border-image-slice: 100%; border-image-source: none; border-image-width: 1; border-inline-end-color: rgb(0, 0, 0); border-inline-end-style: none; border-inline-end-width: 0px; border-inline-start-color: rgb(0, 0, 0); border-inline-start-style: none; border-inline-start-width: 0px; border-left-color: rgb(0, 0, 0); border-left-style: none; border-left-width: 0px; border-right-color: rgb(0, 0, 0); border-right-style: none; border-right-width: 0px; border-top-color: rgb(0, 0, 0); border-top-left-radius: 0px; border-top-right-radius: 0px; border-top-style: none; border-top-width: 0px; bottom: auto; box-shadow: none; box-sizing: content-box; break-after: auto; break-before: auto; break-inside: auto; buffered-rendering: auto; caption-side: top; caret-color: rgb(0, 0, 0); clear: none; clip: auto; clip-path: none; clip-rule: nonzero; color: rgb(0, 0, 0); color-interpolation: srgb; color-interpolation-filters: linearrgb; color-rendering: auto; column-count: auto; column-gap: normal; column-rule-color: rgb(0, 0, 0); column-rule-style: none; column-rule-width: 0px; column-span: none; column-width: auto; content: normal; cursor: auto; cx: 0px; cy: 0px; d: none; direction: ltr; display: block; dominant-baseline: auto; empty-cells: show; fill: none; fill-opacity: 1; fill-rule: nonzero; filter: none; flex-basis: auto; flex-direction: row; flex-grow: 0; flex-shrink: 1; flex-wrap: nowrap; float: none; flood-color: rgb(0, 0, 0); flood-opacity: 1; font-family: Times; font-kerning: auto; font-optical-sizing: auto; font-size: 16px; font-stretch: 100%; font-style: normal; font-variant: normal; font-variant-caps: normal; font-variant-east-asian: normal; font-variant-ligatures: normal; font-variant-numeric: normal; font-weight: 400; grid-auto-columns: auto; grid-auto-flow: row; grid-auto-rows: auto; grid-column-end: auto; grid-column-start: auto; grid-row-end: auto; grid-row-start: auto; grid-template-areas: none; grid-template-columns: none; grid-template-rows: none; height: 798px; hyphens: manual; image-orientation: from-image; image-rendering: auto; inline-size: 3121px; isolation: auto; justify-content: normal; justify-items: normal; justify-self: auto; left: auto; letter-spacing: normal; lighting-color: rgb(255, 255, 255); line-break: auto; line-height: normal; list-style-image: none; list-style-position: outside; list-style-type: disc; margin-block-end: 0px; margin-block-start: 0px; margin-bottom: 0px; margin-inline-end: 0px; margin-inline-start: 0px; margin-left: 0px; margin-right: 0px; margin-top: 0px; marker-end: none; marker-mid: none; marker-start: none; mask-type: luminance; max-block-size: none; max-height: none; max-inline-size: none; max-width: none; min-block-size: 0px; min-height: 0px; min-inline-size: 0px; min-width: 0px; mix-blend-mode: normal; object-fit: fill; object-position: 50% 50%; offset-distance: 0px; offset-path: none; offset-rotate: auto 0deg; opacity: 1; order: 0; orphans: 2; outline-color: rgb(0, 0, 0); outline-offset: 0px; outline-style: none; outline-width: 0px; overflow-anchor: auto; overflow-wrap: normal; overflow-x: visible; overflow-y: visible; overscroll-behavior-block: auto; overscroll-behavior-inline: auto; padding-block-end: 0px; padding-block-start: 0px; padding-bottom: 0px; padding-inline-end: 0px; padding-inline-start: 0px; padding-left: 0px; padding-right: 0px; padding-top: 0px; paint-order: normal; perspective: none; perspective-origin: 1560.5px 399px; pointer-events: auto; position: static; r: 0px; resize: none; right: auto; row-gap: normal; ruby-position: over; rx: auto; ry: auto; scroll-behavior: auto; scroll-margin-block-end: 0px; scroll-margin-block-start: 0px; scroll-margin-inline-end: 0px; scroll-margin-inline-start: 0px; scroll-padding-block-end: auto; scroll-padding-block-start: auto; scroll-padding-inline-end: auto; scroll-padding-inline-start: auto; shape-image-threshold: 0; shape-margin: 0px; shape-outside: none; shape-rendering: auto; speak: normal; stop-color: rgb(0, 0, 0); stop-opacity: 1; stroke: none; stroke-dasharray: none; stroke-dashoffset: 0px; stroke-linecap: butt; stroke-linejoin: miter; stroke-miterlimit: 4; stroke-opacity: 1; stroke-width: 1px; tab-size: 8; table-layout: auto; text-align: start; text-align-last: auto; text-anchor: start; text-decoration: none solid rgb(0, 0, 0); text-decoration-color: rgb(0, 0, 0); text-decoration-line: none; text-decoration-skip-ink: auto; text-decoration-style: solid; text-indent: 0px; text-overflow: clip; text-rendering: auto; text-shadow: none; text-size-adjust: auto; text-transform: none; text-underline-position: auto; top: auto; touch-action: auto; transform: none; transform-origin: 1560.5px 399px; transform-style: flat; transition-delay: 0s; transition-duration: 0s; transition-property: all; transition-timing-function: ease; unicode-bidi: normal; user-select: auto; vector-effect: none; vertical-align: baseline; visibility: visible; white-space: normal; widows: 2; width: 3121px; will-change: auto; word-break: normal; word-spacing: 0px; writing-mode: horizontal-tb; x: 0px; y: 0px; z-index: auto; zoom: 1; -webkit-app-region: none; -webkit-border-horizontal-spacing: 0px; -webkit-border-image: none; -webkit-border-vertical-spacing: 0px; -webkit-box-align: stretch; -webkit-box-decoration-break: slice; -webkit-box-direction: normal; -webkit-box-flex: 0; -webkit-box-ordinal-group: 1; -webkit-box-orient: horizontal; -webkit-box-pack: start; -webkit-box-reflect: none; -webkit-font-smoothing: auto; -webkit-highlight: none; -webkit-hyphenate-character: auto; -webkit-line-break: auto; -webkit-line-clamp: none; -webkit-locale: auto; -webkit-mask-box-image: none; -webkit-mask-box-image-outset: 0; -webkit-mask-box-image-repeat: stretch; -webkit-mask-box-image-slice: 0 fill; -webkit-mask-box-image-source: none; -webkit-mask-box-image-width: auto; -webkit-mask-clip: border-box; -webkit-mask-composite: source-over; -webkit-mask-image: none; -webkit-mask-origin: border-box; -webkit-mask-position: 0% 0%; -webkit-mask-repeat: repeat; -webkit-mask-size: auto; -webkit-print-color-adjust: economy; -webkit-rtl-ordering: logical; -webkit-tap-highlight-color: rgba(0, 0, 0, 0.18); -webkit-text-combine: none; -webkit-text-decorations-in-effect: none; -webkit-text-emphasis-color: rgb(0, 0, 0); -webkit-text-emphasis-position: over right; -webkit-text-emphasis-style: none; -webkit-text-fill-color: rgb(0, 0, 0); -webkit-text-orientation: vertical-right; -webkit-text-security: none; -webkit-text-stroke-color: rgb(0, 0, 0); -webkit-text-stroke-width: 0px; -webkit-user-drag: auto; -webkit-user-modify: read-only; -webkit-writing-mode: horizontal-tb;" version="1.1" xmlns:xlink="http://www.w3.org/1999/xlink"><style xmlns="" type="text/css"></style><svg viewBox="0 0 3121 798" fill="none">
<g clip-path="url(#clip0)">
<rect width="3121" height="798" fill="white"/>
<path d="M1109.49 550.547C1108.83 550.328 1108.88 549.932 1109.68 549.036C1111.01 547.534 1111 547.535 1112.29 548.822C1112.87 549.402 1113.34 550.732 1113.34 551.778C1113.34 552.823 1113.68 553.678 1114.08 553.678C1114.49 553.678 1114.82 554.675 1114.82 555.895C1114.82 557.114 1115.16 558.112 1115.56 558.112C1115.97 558.112 1116.3 558.777 1116.3 559.59C1116.3 560.575 1116.8 561.068 1117.78 561.068C1118.6 561.068 1119.26 560.735 1119.26 560.329C1119.26 559.922 1120.26 559.59 1121.48 559.59C1122.7 559.59 1123.7 559.257 1123.7 558.851C1123.7 558.444 1124.37 558.112 1125.18 558.112C1126 558.112 1126.66 557.779 1126.66 557.373C1126.66 556.966 1127.33 556.634 1128.14 556.634C1129.13 556.634 1129.62 557.127 1129.62 558.112C1129.62 558.925 1129.95 559.59 1130.36 559.59C1130.77 559.59 1131.1 560.182 1131.1 560.904C1131.1 561.628 1131.77 562.699 1132.58 563.285C1133.39 563.871 1134.06 564.799 1134.06 565.348C1134.06 566.85 1136.45 569.046 1136.84 567.897C1137.01 567.392 1138.11 566.98 1139.3 566.98C1140.49 566.98 1141.46 566.647 1141.46 566.241C1141.46 565.834 1142.12 565.502 1142.94 565.502C1143.75 565.502 1144.42 565.169 1144.42 564.763C1144.42 564.356 1145.42 564.024 1146.64 564.024C1148.36 564.024 1148.86 564.352 1148.86 565.502C1148.86 566.315 1149.19 566.98 1149.6 566.98C1150 566.98 1150.34 567.977 1150.34 569.197C1150.34 570.416 1150.67 571.414 1151.08 571.414C1151.48 571.414 1151.82 572.079 1151.82 572.892C1151.82 573.705 1152.15 574.37 1152.56 574.37C1152.96 574.37 1153.3 575.367 1153.3 576.587C1153.3 578.311 1152.97 578.804 1151.82 578.804C1150.83 578.804 1150.34 578.311 1150.34 577.326C1150.34 576.513 1150 575.848 1149.6 575.848C1149.19 575.848 1148.86 575.183 1148.86 574.37C1148.86 573.557 1148.52 572.892 1148.12 572.892C1147.71 572.892 1147.38 571.894 1147.38 570.675C1147.38 568.704 1147.13 568.458 1145.16 568.458C1143.94 568.458 1142.94 568.79 1142.94 569.197C1142.94 569.603 1141.94 569.936 1140.72 569.936C1139.5 569.936 1138.5 570.268 1138.5 570.675C1138.5 571.081 1137.86 571.414 1137.08 571.414C1136.3 571.414 1135.53 571.826 1135.36 572.331C1134.95 573.552 1132.58 571.238 1132.58 569.619C1132.58 568.98 1132.25 568.458 1131.84 568.458C1131.43 568.458 1131.1 567.866 1131.1 567.143C1131.1 566.42 1130.43 565.349 1129.62 564.763C1128.81 564.177 1128.14 563.106 1128.14 562.382C1128.14 561.561 1127.59 561.068 1126.66 561.068C1125.85 561.068 1125.18 561.4 1125.18 561.807C1125.18 562.213 1124.18 562.546 1122.96 562.546C1121.74 562.546 1120.74 562.878 1120.74 563.285C1120.74 563.691 1120.08 564.024 1119.26 564.024C1118.45 564.024 1117.78 564.356 1117.78 564.763C1117.78 565.86 1115.61 565.657 1114.4 564.446C1113.82 563.866 1113.34 562.535 1113.34 561.49C1113.34 560.445 1113.01 559.59 1112.6 559.59C1112.2 559.59 1111.86 558.592 1111.86 557.373C1111.86 556.153 1111.53 555.156 1111.13 555.156C1110.72 555.156 1110.39 554.186 1110.39 553C1110.39 551.815 1109.98 550.711 1109.49 550.547Z" fill="#307280"/>
<path d="M1050.15 212.986C1051.52 212.986 1052.65 212.761 1052.65 212.487C1052.65 211.73 1054.12 211.888 1054.97 212.736C1055.63 213.403 1055.63 213.569 1054.97 214.236C1054.56 214.648 1053.41 214.985 1052.43 214.985C1051.45 214.985 1050.65 215.21 1050.65 215.485C1050.65 215.76 1050.2 215.985 1049.65 215.985C1048.87 215.985 1048.65 216.318 1048.65 217.484C1048.65 218.309 1048.87 218.983 1049.15 218.983C1049.42 218.983 1049.65 219.433 1049.65 219.983C1049.65 220.532 1049.87 220.982 1050.15 220.982C1050.42 220.982 1050.65 221.432 1050.65 221.982C1050.65 222.648 1050.31 222.981 1049.65 222.981C1049.1 222.981 1048.65 223.206 1048.65 223.481C1048.65 223.756 1047.84 223.981 1046.86 223.981C1045.88 223.981 1044.73 224.326 1044.31 224.749C1043.61 225.441 1043.64 225.609 1044.59 226.432C1045.17 226.935 1045.65 227.664 1045.65 228.052C1045.65 228.44 1046.1 229.082 1046.65 229.478C1047.2 229.874 1047.65 230.598 1047.65 231.088C1047.65 231.821 1047.21 231.977 1045.15 231.977C1043.77 231.977 1042.65 232.201 1042.65 232.476C1042.65 232.751 1041.75 232.976 1040.65 232.976C1039.55 232.976 1038.65 233.201 1038.65 233.476C1038.65 234.251 1036.17 234.065 1035.33 233.226C1034.14 232.041 1035.58 230.977 1038.36 230.977C1039.62 230.977 1040.65 230.752 1040.65 230.477C1040.65 230.202 1041.32 229.978 1042.15 229.978C1043.89 229.978 1044.05 229.492 1042.65 228.478C1042.1 228.082 1041.65 227.407 1041.65 226.979C1041.65 226.551 1041.2 225.876 1040.65 225.48C1040.1 225.084 1039.65 224.359 1039.65 223.87C1039.65 223.314 1040.02 222.981 1040.65 222.981C1041.2 222.981 1041.65 222.756 1041.65 222.481C1041.65 222.207 1042.55 221.982 1043.65 221.982C1044.75 221.982 1045.65 221.757 1045.65 221.482C1045.65 221.207 1046.1 220.982 1046.65 220.982C1047.2 220.982 1047.65 220.757 1047.65 220.482C1047.65 220.208 1047.42 219.983 1047.15 219.983C1046.87 219.983 1046.65 219.533 1046.65 218.983C1046.65 218.433 1046.42 217.984 1046.15 217.984C1045.87 217.984 1045.65 217.534 1045.65 216.984C1045.65 216.434 1045.42 215.985 1045.15 215.985C1044.87 215.985 1044.65 215.535 1044.65 214.985C1044.65 214.208 1044.98 213.986 1046.15 213.986C1046.97 213.986 1047.65 213.761 1047.65 213.486C1047.65 213.211 1048.77 212.986 1050.15 212.986Z" fill="#A5CC7E"/>
<path d="M1130.57 477.167C1130.57 474.432 1130.72 473.973 1132.19 472.437C1133.66 470.901 1134.09 470.733 1136.69 470.702C1138.3 470.683 1139.56 470.888 1139.56 471.168C1139.56 471.443 1139.92 471.667 1140.35 471.667C1141.36 471.667 1142.56 472.871 1142.56 473.881C1142.56 474.313 1142.79 474.666 1143.06 474.666C1143.34 474.666 1143.56 475.79 1143.56 477.165C1143.56 478.539 1143.34 479.663 1143.06 479.663C1142.79 479.663 1142.56 480.017 1142.56 480.448C1142.56 481.458 1141.36 482.662 1140.35 482.662C1139.92 482.662 1139.56 482.887 1139.56 483.162C1139.56 483.436 1138.32 483.661 1136.8 483.661C1134.31 483.661 1133.86 483.488 1132.3 481.929C1130.7 480.333 1130.57 479.957 1130.57 477.167Z" fill="#00A0FF"/>
<path d="M1109.66 267.77C1110.04 267.77 1110.67 267.32 1111.07 266.77C1111.46 266.221 1112.19 265.771 1112.68 265.771C1113.23 265.771 1113.57 266.145 1113.57 266.77C1113.57 267.32 1113.79 267.77 1114.07 267.77C1114.35 267.77 1114.57 269.269 1114.57 271.268C1114.57 273.267 1114.78 274.766 1115.07 274.766C1115.88 274.766 1115.64 277.268 1114.73 278.171C1114.12 278.778 1113.84 278.836 1113.69 278.385C1113.58 278.044 1112.83 277.765 1112.03 277.765C1111.22 277.765 1110.57 277.54 1110.57 277.265C1110.57 276.99 1110.12 276.765 1109.57 276.765C1109.02 276.765 1108.57 276.541 1108.57 276.266C1108.57 275.991 1107.89 275.766 1107.07 275.766C1106.24 275.766 1105.57 275.541 1105.57 275.266C1105.57 274.991 1105.12 274.766 1104.57 274.766C1103.83 274.766 1103.57 274.433 1103.57 273.482C1103.57 272.136 1104.58 270.768 1105.58 270.768C1105.9 270.768 1106.8 270.094 1107.57 269.269C1108.34 268.445 1109.28 267.77 1109.66 267.77Z" fill="#C31162"/>
<path d="M563.844 468.39C564.394 467.994 564.844 467.269 564.844 466.78C564.844 466.125 565.24 465.891 566.344 465.891C567.169 465.891 567.844 466.116 567.844 466.391C567.844 466.666 567.619 466.891 567.344 466.891C567.069 466.891 566.844 467.34 566.844 467.89C566.844 468.44 566.619 468.89 566.344 468.89C566.069 468.89 565.844 469.234 565.844 469.656C565.844 470.358 562.731 473.887 562.111 473.887C561.965 473.887 561.845 473.212 561.845 472.388C561.845 471.563 562.07 470.889 562.345 470.889C562.62 470.889 562.845 470.488 562.845 470C562.845 469.51 563.295 468.786 563.844 468.39Z" fill="#496A5B"/>
<path d="M554.962 472.888C554.05 472.888 551.846 470.606 551.846 469.662C551.846 469.223 552.277 468.89 552.846 468.89C553.396 468.89 553.845 469.114 553.845 469.389C553.845 469.664 554.246 469.889 554.735 469.889C555.224 469.889 555.949 470.339 556.345 470.889C556.742 471.438 557.37 471.888 557.741 471.888C558.656 471.888 559.845 473.138 559.845 474.101C559.845 475.273 557.229 475.113 556.345 473.887C555.949 473.337 555.326 472.888 554.962 472.888Z" fill="#496A5B"/>
<path d="M564.05 477.637C563.011 476.597 562.91 476.267 563.448 475.657C564.204 474.8 564.844 474.676 564.844 475.386C564.844 475.661 565.245 475.886 565.734 475.886C566.223 475.886 566.948 476.336 567.344 476.886C567.741 477.435 568.368 477.885 568.74 477.885C569.655 477.885 570.844 479.135 570.844 480.098C570.844 481.27 568.228 481.11 567.344 479.884C566.948 479.334 566.325 478.884 565.961 478.884C565.597 478.884 564.737 478.323 564.05 477.637Z" fill="#496A5B"/>
<path d="M557.845 479.384C558.395 478.988 558.845 478.264 558.845 477.775C558.845 477.219 559.219 476.886 559.845 476.886C560.623 476.886 560.845 477.219 560.845 478.385C560.845 479.209 560.62 479.884 560.345 479.884C560.07 479.884 559.845 480.284 559.845 480.773C559.845 481.262 559.395 481.986 558.845 482.383C558.295 482.779 557.845 483.503 557.845 483.992C557.845 484.548 557.471 484.881 556.845 484.881C556.067 484.881 555.845 484.548 555.845 483.382C555.845 482.558 556.07 481.883 556.345 481.883C556.62 481.883 556.845 481.483 556.845 480.994C556.845 480.505 557.295 479.781 557.845 479.384Z" fill="#496A5B"/>
<path d="M857.061 583.111C856.139 582.25 855.562 581.21 855.562 580.412C855.562 579.446 855.818 579.113 856.561 579.113C857.124 579.113 857.561 579.446 857.561 579.875C857.561 580.747 861.75 585.11 862.587 585.11C862.891 585.11 864.004 584.21 865.061 583.111C866.117 582.011 867.318 581.112 867.729 581.112C868.141 581.112 868.569 580.834 868.682 580.496C868.8 580.144 870.196 581.212 871.946 582.995C873.628 584.707 875.305 586.109 875.672 586.109C876.038 586.109 876.663 585.659 877.059 585.11C877.456 584.56 878.09 584.11 878.469 584.11C878.848 584.11 879.789 583.436 880.559 582.611C882.081 580.982 883.559 580.638 883.559 581.911C883.559 582.35 884.234 583.34 885.059 584.11C885.883 584.88 886.558 585.821 886.558 586.199C886.558 586.578 887.008 587.212 887.558 587.609C888.108 588.005 888.558 588.71 888.558 589.176C888.558 589.642 888.837 590.117 889.179 590.231C889.625 590.379 889.555 590.682 888.929 591.308C888.155 592.081 887.975 592.094 887.308 591.428C886.896 591.016 886.558 590.415 886.558 590.094C886.558 589.772 885.883 588.878 885.059 588.108C884.234 587.338 883.559 586.445 883.559 586.123C883.559 585.801 883.218 585.197 882.8 584.78C882.123 584.103 881.889 584.186 880.6 585.566C879.807 586.414 878.848 587.109 878.469 587.109C878.09 587.109 877.456 587.559 877.059 588.108C875.981 589.603 875.235 589.355 872.56 586.609C869.241 583.203 867.876 583.207 864.537 586.634L862.077 589.158L860.319 587.4C859.352 586.434 858.561 585.388 858.561 585.077C858.561 584.766 857.886 583.881 857.061 583.111Z" fill="#FFBD00"/>
<path d="M883.591 238.017C883.591 237.596 884.097 236.709 884.716 236.049C885.664 235.036 886.333 234.843 888.982 234.817C891.918 234.789 892.236 234.9 893.856 236.52C894.891 237.554 895.589 238.745 895.589 239.476C895.589 240.15 895.871 240.832 896.214 240.992C896.714 241.225 896.714 241.342 896.214 241.575C895.871 241.735 895.589 242.418 895.589 243.091C895.589 243.822 894.891 245.014 893.856 246.048C892.296 247.607 891.847 247.78 889.357 247.78C887.835 247.78 886.59 247.555 886.59 247.281C886.59 247.006 886.237 246.781 885.805 246.781C884.795 246.781 883.591 245.577 883.591 244.567C883.591 244.136 883.366 243.782 883.091 243.782C882.816 243.782 882.591 242.658 882.591 241.284C882.591 239.909 882.816 238.785 883.091 238.785C883.366 238.785 883.591 238.44 883.591 238.017Z" fill="#C0D271"/>
<path d="M2972.58 534.819C2971.67 534.517 2971.74 533.97 2972.84 532.734C2974.68 530.66 2974.66 530.661 2976.44 532.438C2977.24 533.239 2977.9 535.075 2977.9 536.518C2977.9 537.96 2978.36 539.14 2978.92 539.14C2979.48 539.14 2979.94 540.517 2979.94 542.2C2979.94 543.883 2980.4 545.26 2980.96 545.26C2981.53 545.26 2981.99 546.178 2981.99 547.3C2981.99 548.66 2982.67 549.34 2984.03 549.34C2985.15 549.34 2986.07 548.881 2986.07 548.32C2986.07 547.759 2987.45 547.3 2989.13 547.3C2990.82 547.3 2992.2 546.841 2992.2 546.28C2992.2 545.719 2993.12 545.26 2994.24 545.26C2995.36 545.26 2996.28 544.801 2996.28 544.24C2996.28 543.679 2997.2 543.22 2998.32 543.22C2999.69 543.22 3000.37 543.901 3000.37 545.26C3000.37 546.382 3000.83 547.3 3001.39 547.3C3001.95 547.3 3002.41 548.117 3002.41 549.115C3002.41 550.113 3003.33 551.591 3004.45 552.4C3005.57 553.209 3006.49 554.49 3006.49 555.248C3006.49 557.321 3009.8 560.352 3010.33 558.766C3010.56 558.069 3012.09 557.5 3013.73 557.5C3015.37 557.5 3016.71 557.041 3016.71 556.48C3016.71 555.919 3017.62 555.46 3018.75 555.46C3019.87 555.46 3020.79 555.001 3020.79 554.44C3020.79 553.879 3022.17 553.42 3023.85 553.42C3026.24 553.42 3026.92 553.873 3026.92 555.46C3026.92 556.582 3027.38 557.5 3027.94 557.5C3028.5 557.5 3028.96 558.877 3028.96 560.56C3028.96 562.243 3029.42 563.62 3029.98 563.62C3030.54 563.62 3031 564.538 3031 565.66C3031 566.782 3031.46 567.7 3032.02 567.7C3032.58 567.7 3033.04 569.077 3033.04 570.76C3033.04 573.14 3032.59 573.82 3031 573.82C3029.64 573.82 3028.96 573.14 3028.96 571.78C3028.96 570.658 3028.5 569.74 3027.94 569.74C3027.38 569.74 3026.92 568.822 3026.92 567.7C3026.92 566.578 3026.46 565.66 3025.9 565.66C3025.33 565.66 3024.87 564.283 3024.87 562.6C3024.87 559.88 3024.53 559.54 3021.81 559.54C3020.13 559.54 3018.75 559.999 3018.75 560.56C3018.75 561.121 3017.37 561.58 3015.68 561.58C3014 561.58 3012.62 562.039 3012.62 562.6C3012.62 563.161 3011.74 563.62 3010.66 563.62C3009.59 563.62 3008.52 564.19 3008.28 564.886C3007.72 566.571 3004.45 563.378 3004.45 561.143C3004.45 560.261 3003.99 559.54 3003.43 559.54C3002.87 559.54 3002.41 558.723 3002.41 557.726C3002.41 556.727 3001.49 555.249 3000.37 554.44C2999.24 553.631 2998.32 552.153 2998.32 551.155C2998.32 550.021 2997.56 549.34 2996.28 549.34C2995.16 549.34 2994.24 549.799 2994.24 550.36C2994.24 550.921 2992.86 551.38 2991.18 551.38C2989.49 551.38 2988.11 551.839 2988.11 552.4C2988.11 552.961 2987.19 553.42 2986.07 553.42C2984.95 553.42 2984.03 553.879 2984.03 554.44C2984.03 555.955 2981.03 555.674 2979.36 554.003C2978.56 553.202 2977.9 551.366 2977.9 549.923C2977.9 548.48 2977.44 547.3 2976.88 547.3C2976.32 547.3 2975.86 545.923 2975.86 544.24C2975.86 542.557 2975.4 541.18 2974.84 541.18C2974.28 541.18 2973.82 539.842 2973.82 538.205C2973.82 536.569 2973.26 535.045 2972.58 534.819Z" fill="#307280"/>
<path d="M2890.67 68.8998C2892.57 68.8998 2894.12 68.5894 2894.12 68.2101C2894.12 67.1657 2896.15 67.3844 2897.33 68.555C2898.25 69.4744 2898.25 69.7048 2897.33 70.6243C2896.76 71.1933 2895.18 71.6589 2893.83 71.6589C2892.47 71.6589 2891.36 71.9693 2891.36 72.3487C2891.36 72.7281 2890.74 73.0385 2889.98 73.0385C2888.91 73.0385 2888.6 73.4986 2888.6 75.1078C2888.6 76.246 2888.91 77.1772 2889.29 77.1772C2889.67 77.1772 2889.98 77.7979 2889.98 78.5567C2889.98 79.3155 2890.29 79.9363 2890.67 79.9363C2891.05 79.9363 2891.36 80.5571 2891.36 81.3158C2891.36 82.2353 2890.9 82.6954 2889.98 82.6954C2889.22 82.6954 2888.6 83.0058 2888.6 83.3851C2888.6 83.7645 2887.49 84.0749 2886.14 84.0749C2884.78 84.0749 2883.19 84.5522 2882.61 85.1358C2881.66 86.0904 2881.7 86.3229 2883.01 87.4583C2883.81 88.1522 2884.46 89.1586 2884.46 89.6945C2884.46 90.2298 2885.08 91.1154 2885.84 91.6624C2886.6 92.2094 2887.22 93.2089 2887.22 93.8842C2887.22 94.8968 2886.62 95.1113 2883.77 95.1113C2881.87 95.1113 2880.32 95.4217 2880.32 95.8011C2880.32 96.1805 2879.08 96.4909 2877.56 96.4909C2876.04 96.4909 2874.8 96.8013 2874.8 97.1806C2874.8 98.2512 2871.37 97.9932 2870.22 96.8358C2868.58 95.1996 2870.56 93.7318 2874.41 93.7318C2876.14 93.7318 2877.56 93.4214 2877.56 93.042C2877.56 92.6626 2878.49 92.3522 2879.63 92.3522C2882.04 92.3522 2882.26 91.6817 2880.32 90.2829C2879.56 89.7359 2878.94 88.8047 2878.94 88.2136C2878.94 87.6224 2878.32 86.6912 2877.56 86.1442C2876.8 85.5972 2876.18 84.5978 2876.18 83.9225C2876.18 83.1554 2876.7 82.6954 2877.56 82.6954C2878.32 82.6954 2878.94 82.385 2878.94 82.0056C2878.94 81.6262 2880.18 81.3158 2881.7 81.3158C2883.22 81.3158 2884.46 81.0054 2884.46 80.626C2884.46 80.2467 2885.08 79.9363 2885.84 79.9363C2886.6 79.9363 2887.22 79.6259 2887.22 79.2465C2887.22 78.8671 2886.91 78.5567 2886.53 78.5567C2886.15 78.5567 2885.84 77.9359 2885.84 77.1772C2885.84 76.4184 2885.53 75.7976 2885.15 75.7976C2884.77 75.7976 2884.46 75.1768 2884.46 74.418C2884.46 73.6593 2884.15 73.0385 2883.77 73.0385C2883.39 73.0385 2883.08 72.4177 2883.08 71.6589C2883.08 70.5857 2883.54 70.2794 2885.15 70.2794C2886.29 70.2794 2887.22 69.969 2887.22 69.5896C2887.22 69.2102 2888.77 68.8998 2890.67 68.8998Z" fill="#A5CC7E"/>
<path d="M3001.67 433.536C3001.67 429.76 3001.89 429.127 3003.91 427.007C3005.94 424.887 3006.54 424.656 3010.12 424.613C3012.34 424.586 3014.09 424.87 3014.09 425.255C3014.09 425.635 3014.58 425.945 3015.17 425.945C3016.57 425.945 3018.23 427.606 3018.23 429C3018.23 429.596 3018.54 430.084 3018.92 430.084C3019.3 430.084 3019.61 431.636 3019.61 433.533C3019.61 435.429 3019.3 436.981 3018.92 436.981C3018.54 436.981 3018.23 437.469 3018.23 438.065C3018.23 439.459 3016.57 441.12 3015.17 441.12C3014.58 441.12 3014.09 441.43 3014.09 441.81C3014.09 442.189 3012.37 442.5 3010.27 442.5C3006.83 442.5 3006.21 442.261 3004.06 440.108C3001.86 437.906 3001.67 437.387 3001.67 433.536Z" fill="#00A0FF"/>
<path d="M2972.81 144.515C2973.33 144.515 2974.21 143.895 2974.76 143.136C2975.3 142.377 2976.3 141.756 2976.98 141.756C2977.75 141.756 2978.21 142.273 2978.21 143.136C2978.21 143.895 2978.52 144.515 2978.9 144.515C2979.29 144.515 2979.59 146.585 2979.59 149.344C2979.59 152.103 2979.88 154.172 2980.28 154.172C2981.4 154.172 2981.06 157.625 2979.81 158.872C2978.98 159.709 2978.59 159.79 2978.38 159.167C2978.22 158.696 2977.19 158.311 2976.08 158.311C2974.97 158.311 2974.07 158.001 2974.07 157.621C2974.07 157.242 2973.45 156.931 2972.69 156.931C2971.93 156.931 2971.31 156.621 2971.31 156.242C2971.31 155.862 2970.37 155.552 2969.24 155.552C2968.1 155.552 2967.17 155.241 2967.17 154.862C2967.17 154.483 2966.54 154.172 2965.79 154.172C2964.76 154.172 2964.41 153.712 2964.41 152.399C2964.41 150.542 2965.81 148.654 2967.18 148.654C2967.63 148.654 2968.86 147.723 2969.93 146.585C2970.99 145.447 2972.29 144.515 2972.81 144.515Z" fill="#C31162"/>
<path d="M2219.45 421.422C2220.21 420.875 2220.83 419.875 2220.83 419.2C2220.83 418.296 2221.38 417.973 2222.9 417.973C2224.04 417.973 2224.97 418.283 2224.97 418.662C2224.97 419.042 2224.66 419.352 2224.28 419.352C2223.9 419.352 2223.59 419.973 2223.59 420.732C2223.59 421.49 2223.28 422.111 2222.9 422.111C2222.52 422.111 2222.21 422.587 2222.21 423.169C2222.21 424.138 2217.91 429.009 2217.06 429.009C2216.86 429.009 2216.69 428.078 2216.69 426.94C2216.69 425.802 2217 424.87 2217.38 424.87C2217.76 424.87 2218.07 424.318 2218.07 423.643C2218.07 422.968 2218.69 421.969 2219.45 421.422Z" fill="#496A5B"/>
<path d="M2207.19 427.63C2205.93 427.63 2202.89 424.481 2202.89 423.177C2202.89 422.571 2203.49 422.111 2204.27 422.111C2205.03 422.111 2205.65 422.422 2205.65 422.801C2205.65 423.18 2206.2 423.491 2206.88 423.491C2207.55 423.491 2208.55 424.112 2209.1 424.87C2209.65 425.629 2210.51 426.25 2211.03 426.25C2212.29 426.25 2213.93 427.975 2213.93 429.305C2213.93 430.922 2210.32 430.701 2209.1 429.009C2208.55 428.25 2207.69 427.63 2207.19 427.63Z" fill="#496A5B"/>
<path d="M2219.74 434.184C2218.3 432.75 2218.16 432.294 2218.9 431.452C2219.95 430.269 2220.83 430.098 2220.83 431.078C2220.83 431.458 2221.38 431.768 2222.06 431.768C2222.73 431.768 2223.73 432.389 2224.28 433.148C2224.83 433.906 2225.7 434.527 2226.21 434.527C2227.47 434.527 2229.11 436.252 2229.11 437.582C2229.11 439.199 2225.5 438.978 2224.28 437.286C2223.73 436.528 2222.88 435.907 2222.37 435.907C2221.87 435.907 2220.68 435.132 2219.74 434.184Z" fill="#496A5B"/>
<path d="M2211.17 436.597C2211.93 436.05 2212.55 435.05 2212.55 434.375C2212.55 433.608 2213.07 433.148 2213.93 433.148C2215 433.148 2215.31 433.608 2215.31 435.217C2215.31 436.355 2215 437.286 2214.62 437.286C2214.24 437.286 2213.93 437.839 2213.93 438.513C2213.93 439.189 2213.31 440.188 2212.55 440.735C2211.79 441.282 2211.17 442.282 2211.17 442.957C2211.17 443.724 2210.65 444.184 2209.79 444.184C2208.72 444.184 2208.41 443.724 2208.41 442.115C2208.41 440.977 2208.72 440.045 2209.1 440.045C2209.48 440.045 2209.79 439.493 2209.79 438.818C2209.79 438.143 2210.41 437.144 2211.17 436.597Z" fill="#496A5B"/>
<path d="M2624.16 579.765C2622.89 578.577 2622.09 577.142 2622.09 576.04C2622.09 574.707 2622.45 574.247 2623.47 574.247C2624.25 574.247 2624.85 574.707 2624.85 575.3C2624.85 576.503 2630.64 582.524 2631.79 582.524C2632.21 582.524 2633.75 581.283 2635.21 579.765C2636.66 578.248 2638.32 577.006 2638.89 577.006C2639.46 577.006 2640.05 576.623 2640.2 576.156C2640.37 575.67 2642.29 577.145 2644.71 579.605C2647.03 581.969 2649.35 583.904 2649.85 583.904C2650.36 583.904 2651.22 583.283 2651.77 582.524C2652.31 581.766 2653.19 581.145 2653.71 581.145C2654.24 581.145 2655.53 580.214 2656.6 579.076C2658.7 576.828 2660.74 576.352 2660.74 578.109C2660.74 578.715 2661.67 580.082 2662.81 581.145C2663.95 582.208 2664.88 583.506 2664.88 584.028C2664.88 584.551 2665.5 585.426 2666.26 585.973C2667.02 586.52 2667.64 587.494 2667.64 588.137C2667.64 588.781 2668.02 589.435 2668.49 589.593C2669.11 589.797 2669.01 590.215 2668.15 591.079C2667.08 592.146 2666.83 592.165 2665.91 591.245C2665.34 590.676 2664.88 589.847 2664.88 589.404C2664.88 588.959 2663.95 587.726 2662.81 586.663C2661.67 585.6 2660.74 584.367 2660.74 583.923C2660.74 583.479 2660.27 582.645 2659.69 582.07C2658.76 581.134 2658.43 581.25 2656.65 583.153C2655.56 584.325 2654.24 585.284 2653.71 585.284C2653.19 585.284 2652.31 585.904 2651.77 586.663C2650.28 588.726 2649.25 588.383 2645.56 584.594C2640.98 579.892 2639.09 579.898 2634.48 584.628L2631.09 588.112L2628.66 585.686C2627.33 584.352 2626.24 582.909 2626.24 582.48C2626.24 582.05 2625.3 580.828 2624.16 579.765Z" fill="#FFBD00"/>
<path d="M2660.78 103.449C2660.78 102.867 2661.48 101.644 2662.33 100.732C2663.64 99.3347 2664.57 99.0685 2668.22 99.0326C2672.28 98.9933 2672.72 99.1471 2674.95 101.382C2676.38 102.809 2677.34 104.454 2677.34 105.463C2677.34 106.393 2677.73 107.334 2678.21 107.555C2678.9 107.877 2678.9 108.038 2678.21 108.36C2677.73 108.581 2677.34 109.523 2677.34 110.453C2677.34 111.461 2676.38 113.106 2674.95 114.533C2672.8 116.686 2672.18 116.925 2668.74 116.925C2666.64 116.925 2664.92 116.614 2664.92 116.235C2664.92 115.856 2664.43 115.545 2663.84 115.545C2662.44 115.545 2660.78 113.884 2660.78 112.49C2660.78 111.894 2660.47 111.406 2660.09 111.406C2659.71 111.406 2659.4 109.855 2659.4 107.958C2659.4 106.061 2659.71 104.509 2660.09 104.509C2660.47 104.509 2660.78 104.032 2660.78 103.449Z" fill="#C0D271"/>
<path d="M127.904 162.471C128.867 162.792 128.797 163.37 127.634 164.677C125.685 166.871 125.703 166.87 123.822 164.99C122.973 164.143 122.279 162.202 122.279 160.675C122.279 159.15 121.793 157.901 121.199 157.901C120.605 157.901 120.119 156.445 120.119 154.665C120.119 152.885 119.633 151.429 119.039 151.429C118.445 151.429 117.959 150.458 117.959 149.271C117.959 147.833 117.238 147.113 115.798 147.113C114.61 147.113 113.638 147.599 113.638 148.192C113.638 148.785 112.18 149.271 110.398 149.271C108.616 149.271 107.158 149.756 107.158 150.35C107.158 150.943 106.186 151.429 104.998 151.429C103.81 151.429 102.838 151.914 102.838 152.507C102.838 153.101 101.866 153.586 100.678 153.586C99.2381 153.586 98.5177 152.867 98.5177 151.429C98.5177 150.242 98.0317 149.271 97.4376 149.271C96.8436 149.271 96.3576 148.407 96.3576 147.352C96.3576 146.296 95.3855 144.732 94.1975 143.877C93.0094 143.021 92.0374 141.666 92.0374 140.865C92.0374 138.673 88.5434 135.466 87.9839 137.144C87.7376 137.881 86.1198 138.483 84.3874 138.483C82.6539 138.483 81.2369 138.968 81.2369 139.562C81.2369 140.155 80.2648 140.64 79.0768 140.64C77.8887 140.64 76.9167 141.126 76.9167 141.719C76.9167 142.313 75.4586 142.798 73.6765 142.798C71.1568 142.798 70.4364 142.319 70.4364 140.64C70.4364 139.454 69.9504 138.483 69.3563 138.483C68.7623 138.483 68.2763 137.026 68.2763 135.246C68.2763 133.466 67.7903 132.01 67.1962 132.01C66.6022 132.01 66.1162 131.039 66.1162 129.852C66.1162 128.666 65.6302 127.695 65.0361 127.695C64.4421 127.695 63.9561 126.238 63.9561 124.458C63.9561 121.941 64.4356 121.222 66.1162 121.222C67.5559 121.222 68.2763 121.941 68.2763 123.379C68.2763 124.566 68.7623 125.537 69.3563 125.537C69.9504 125.537 70.4364 126.508 70.4364 127.695C70.4364 128.881 70.9224 129.852 71.5164 129.852C72.1105 129.852 72.5965 131.309 72.5965 133.089C72.5965 135.966 72.9561 136.325 75.8366 136.325C77.6187 136.325 79.0768 135.84 79.0768 135.246C79.0768 134.653 80.5349 134.168 82.3169 134.168C84.099 134.168 85.5571 133.682 85.5571 133.089C85.5571 132.495 86.4881 132.01 87.6275 132.01C88.7659 132.01 89.8978 131.408 90.144 130.671C90.7391 128.889 94.1975 132.267 94.1975 134.63C94.1975 135.562 94.6835 136.325 95.2775 136.325C95.8716 136.325 96.3576 137.189 96.3576 138.244C96.3576 139.301 97.3296 140.864 98.5177 141.719C99.7057 142.575 100.678 144.138 100.678 145.194C100.678 146.394 101.487 147.113 102.838 147.113C104.026 147.113 104.998 146.628 104.998 146.034C104.998 145.441 106.456 144.956 108.238 144.956C110.02 144.956 111.478 144.47 111.478 143.877C111.478 143.283 112.45 142.798 113.638 142.798C114.826 142.798 115.798 142.313 115.798 141.719C115.798 140.117 118.966 140.414 120.735 142.182C121.584 143.029 122.279 144.971 122.279 146.497C122.279 148.023 122.765 149.271 123.359 149.271C123.953 149.271 124.439 150.727 124.439 152.507C124.439 154.287 124.925 155.744 125.519 155.744C126.113 155.744 126.599 157.159 126.599 158.891C126.599 160.621 127.187 162.233 127.904 162.471Z" fill="#307280"/>
<path d="M214.539 655.254C212.532 655.254 210.889 655.582 210.889 655.984C210.889 657.088 208.739 656.857 207.501 655.619C206.528 654.646 206.528 654.403 207.501 653.43C208.103 652.828 209.768 652.336 211.203 652.336C212.636 652.336 213.809 652.008 213.809 651.606C213.809 651.205 214.466 650.877 215.268 650.877C216.404 650.877 216.728 650.39 216.728 648.688C216.728 647.484 216.4 646.5 215.998 646.5C215.597 646.5 215.268 645.843 215.268 645.04C215.268 644.238 214.94 643.581 214.539 643.581C214.137 643.581 213.809 642.925 213.809 642.122C213.809 641.15 214.296 640.663 215.268 640.663C216.071 640.663 216.728 640.335 216.728 639.934C216.728 639.532 217.901 639.204 219.334 639.204C220.769 639.204 222.447 638.699 223.064 638.082C224.074 637.072 224.032 636.827 222.646 635.626C221.8 634.892 221.107 633.827 221.107 633.261C221.107 632.694 220.45 631.758 219.648 631.179C218.845 630.601 218.188 629.544 218.188 628.829C218.188 627.758 218.825 627.531 221.837 627.531C223.844 627.531 225.486 627.203 225.486 626.802C225.486 626.401 226.8 626.072 228.406 626.072C230.011 626.072 231.325 625.744 231.325 625.343C231.325 624.211 234.949 624.483 236.173 625.708C237.905 627.438 235.809 628.991 231.742 628.991C229.907 628.991 228.406 629.319 228.406 629.72C228.406 630.121 227.42 630.45 226.216 630.45C223.67 630.45 223.433 631.159 225.486 632.638C226.289 633.217 226.946 634.202 226.946 634.827C226.946 635.452 227.603 636.437 228.406 637.016C229.208 637.594 229.865 638.651 229.865 639.365C229.865 640.177 229.319 640.663 228.406 640.663C227.603 640.663 226.946 640.992 226.946 641.393C226.946 641.794 225.632 642.122 224.027 642.122C222.421 642.122 221.107 642.451 221.107 642.852C221.107 643.253 220.45 643.581 219.648 643.581C218.845 643.581 218.188 643.91 218.188 644.311C218.188 644.712 218.516 645.04 218.918 645.04C219.319 645.04 219.648 645.697 219.648 646.5C219.648 647.302 219.976 647.959 220.377 647.959C220.779 647.959 221.107 648.615 221.107 649.418C221.107 650.22 221.436 650.877 221.837 650.877C222.238 650.877 222.567 651.533 222.567 652.336C222.567 653.471 222.08 653.795 220.377 653.795C219.173 653.795 218.188 654.123 218.188 654.525C218.188 654.926 216.546 655.254 214.539 655.254Z" fill="#A5CC7E"/>
<path d="M97.1436 269.595C97.1436 273.588 96.9137 274.258 94.7716 276.5C92.6288 278.743 91.9945 278.987 88.203 279.032C85.8588 279.061 84.0064 278.761 84.0064 278.353C84.0064 277.952 83.4904 277.624 82.8598 277.624C81.3848 277.624 79.6274 275.867 79.6274 274.392C79.6274 273.762 79.299 273.246 78.8975 273.246C78.4961 273.246 78.1677 271.605 78.1677 269.599C78.1677 267.592 78.4961 265.951 78.8975 265.951C79.299 265.951 79.6274 265.435 79.6274 264.805C79.6274 263.33 81.3848 261.574 82.8598 261.574C83.4904 261.574 84.0064 261.245 84.0064 260.844C84.0064 260.443 85.8237 260.114 88.0446 260.114C91.6799 260.114 92.3361 260.367 94.6132 262.644C96.9435 264.973 97.1436 265.522 97.1436 269.595Z" fill="#00A0FF"/>
<path d="M127.664 575.279C127.111 575.279 126.185 575.935 125.606 576.738C125.027 577.54 123.97 578.197 123.255 578.197C122.444 578.197 121.957 577.65 121.957 576.738C121.957 575.935 121.628 575.279 121.227 575.279C120.81 575.279 120.497 573.09 120.497 570.172C120.497 567.254 120.184 565.065 119.767 565.065C118.578 565.065 118.937 561.414 120.256 560.095C121.142 559.209 121.557 559.123 121.777 559.782C121.943 560.281 123.036 560.688 124.207 560.688C125.378 560.688 126.336 561.016 126.336 561.417C126.336 561.818 126.993 562.147 127.796 562.147C128.598 562.147 129.255 562.475 129.255 562.876C129.255 563.278 130.241 563.606 131.445 563.606C132.649 563.606 133.634 563.934 133.634 564.335C133.634 564.737 134.291 565.065 135.094 565.065C136.175 565.065 136.554 565.552 136.554 566.941C136.554 568.905 135.072 570.901 133.615 570.901C133.145 570.901 131.84 571.886 130.715 573.09C129.59 574.294 128.217 575.279 127.664 575.279Z" fill="#C31162"/>
<path d="M1033.57 330.615C1032.77 331.194 1032.11 332.251 1032.11 332.965C1032.11 333.921 1031.53 334.263 1029.92 334.263C1028.72 334.263 1027.73 333.935 1027.73 333.534C1027.73 333.132 1028.06 332.804 1028.46 332.804C1028.86 332.804 1029.19 332.148 1029.19 331.345C1029.19 330.543 1029.52 329.886 1029.92 329.886C1030.32 329.886 1030.65 329.383 1030.65 328.768C1030.65 327.743 1035.19 322.59 1036.1 322.59C1036.31 322.59 1036.49 323.575 1036.49 324.779C1036.49 325.983 1036.16 326.968 1035.76 326.968C1035.36 326.968 1035.03 327.552 1035.03 328.266C1035.03 328.98 1034.37 330.037 1033.57 330.615Z" fill="#496A5B"/>
<path d="M1046.54 324.05C1047.87 324.05 1051.08 327.38 1051.08 328.759C1051.08 329.399 1050.46 329.886 1049.63 329.886C1048.82 329.886 1048.17 329.558 1048.17 329.156C1048.17 328.755 1047.58 328.427 1046.87 328.427C1046.15 328.427 1045.1 327.77 1044.52 326.968C1043.94 326.165 1043.02 325.509 1042.48 325.509C1041.14 325.509 1039.41 323.684 1039.41 322.278C1039.41 320.567 1043.23 320.801 1044.52 322.59C1045.1 323.393 1046 324.05 1046.54 324.05Z" fill="#496A5B"/>
<path d="M1033.27 317.117C1034.79 318.634 1034.93 319.116 1034.15 320.007C1033.04 321.258 1032.11 321.439 1032.11 320.402C1032.11 320.001 1031.52 319.672 1030.81 319.672C1030.1 319.672 1029.04 319.016 1028.46 318.213C1027.88 317.411 1026.96 316.754 1026.42 316.754C1025.09 316.754 1023.35 314.93 1023.35 313.523C1023.35 311.813 1027.17 312.046 1028.46 313.836C1029.04 314.638 1029.95 315.295 1030.48 315.295C1031.01 315.295 1032.27 316.115 1033.27 317.117Z" fill="#496A5B"/>
<path d="M1042.33 314.565C1041.52 315.144 1040.87 316.201 1040.87 316.915C1040.87 317.727 1040.32 318.213 1039.41 318.213C1038.27 318.213 1037.95 317.727 1037.95 316.025C1037.95 314.821 1038.28 313.836 1038.68 313.836C1039.08 313.836 1039.41 313.252 1039.41 312.538C1039.41 311.824 1040.06 310.767 1040.87 310.188C1041.67 309.61 1042.33 308.553 1042.33 307.838C1042.33 307.027 1042.87 306.54 1043.79 306.54C1044.92 306.54 1045.25 307.027 1045.25 308.729C1045.25 309.933 1044.92 310.918 1044.52 310.918C1044.11 310.918 1043.79 311.502 1043.79 312.216C1043.79 312.93 1043.13 313.987 1042.33 314.565Z" fill="#496A5B"/>
<path d="M574.675 61.441C576.021 62.698 576.864 64.2155 576.864 65.3813C576.864 66.7908 576.49 67.2773 575.405 67.2773C574.583 67.2773 573.945 66.7907 573.945 66.1641C573.945 64.8917 567.83 58.5228 566.609 58.5228C566.165 58.5228 564.54 59.836 562.997 61.441C561.454 63.046 559.701 64.3592 559.101 64.3592C558.501 64.3592 557.875 64.7641 557.71 65.258C557.539 65.7723 555.501 64.2125 552.946 61.6102C550.491 59.1101 548.043 57.0637 547.507 57.0637C546.971 57.0637 546.06 57.7203 545.481 58.5228C544.902 59.3253 543.976 59.9819 543.423 59.9819C542.87 59.9819 541.497 60.9668 540.372 62.1705C538.151 64.5481 535.993 65.0515 535.993 63.1926C535.993 62.5514 535.008 61.1061 533.804 59.9819C532.599 58.8577 531.614 57.4847 531.614 56.9324C531.614 56.3794 530.957 55.4536 530.154 54.8751C529.352 54.2966 528.695 53.2664 528.695 52.5865C528.695 51.9058 528.288 51.2135 527.789 51.0472C527.138 50.8305 527.24 50.3884 528.154 49.475C529.284 48.3464 529.547 48.3267 530.519 49.2992C531.122 49.901 531.614 50.7779 531.614 51.247C531.614 51.7169 532.599 53.0213 533.804 54.1456C535.008 55.2698 535.993 56.5742 535.993 57.044C535.993 57.5131 536.491 58.3952 537.1 59.0036C538.089 59.9929 538.431 59.871 540.312 57.8575C541.47 56.6187 542.87 55.6046 543.423 55.6046C543.976 55.6046 544.902 54.9481 545.481 54.1456C547.055 51.9635 548.144 52.3261 552.05 56.3342C556.895 61.3068 558.888 61.3009 563.762 56.2977L567.352 52.6135L569.919 55.1793C571.331 56.5902 572.485 58.1165 572.485 58.5702C572.485 59.0247 573.47 60.3168 574.675 61.441Z" fill="#FFBD00"/>
<path d="M457.684 618.713C457.684 619.329 456.945 620.623 456.042 621.587C454.657 623.065 453.681 623.347 449.814 623.385C445.528 623.426 445.063 623.263 442.698 620.9C441.188 619.39 440.168 617.65 440.168 616.584C440.168 615.6 439.757 614.604 439.255 614.37C438.526 614.03 438.526 613.86 439.255 613.52C439.757 613.285 440.168 612.29 440.168 611.306C440.168 610.24 441.188 608.5 442.698 606.99C444.975 604.713 445.631 604.461 449.267 604.461C451.488 604.461 453.305 604.789 453.305 605.19C453.305 605.592 453.821 605.92 454.451 605.92C455.926 605.92 457.684 607.677 457.684 609.151C457.684 609.781 458.012 610.297 458.414 610.297C458.815 610.297 459.144 611.939 459.144 613.945C459.144 615.951 458.815 617.593 458.414 617.593C458.012 617.593 457.684 618.097 457.684 618.713Z" fill="#C0D271"/>
<path d="M2071.04 318.844C2071.7 319.063 2071.65 319.459 2070.86 320.352C2069.53 321.852 2069.54 321.851 2068.25 320.566C2067.67 319.987 2067.2 318.66 2067.2 317.616C2067.2 316.574 2066.87 315.72 2066.46 315.72C2066.05 315.72 2065.72 314.725 2065.72 313.508C2065.72 312.291 2065.39 311.296 2064.98 311.296C2064.58 311.296 2064.25 310.632 2064.25 309.821C2064.25 308.837 2063.75 308.346 2062.77 308.346C2061.96 308.346 2061.29 308.677 2061.29 309.083C2061.29 309.489 2060.3 309.821 2059.08 309.821C2057.86 309.821 2056.86 310.152 2056.86 310.558C2056.86 310.964 2056.2 311.296 2055.39 311.296C2054.57 311.296 2053.91 311.627 2053.91 312.033C2053.91 312.439 2053.24 312.77 2052.43 312.77C2051.45 312.77 2050.96 312.279 2050.96 311.296C2050.96 310.484 2050.62 309.821 2050.22 309.821C2049.81 309.821 2049.48 309.23 2049.48 308.509C2049.48 307.787 2048.81 306.718 2048 306.133C2047.19 305.548 2046.53 304.622 2046.53 304.074C2046.53 302.576 2044.14 300.384 2043.75 301.531C2043.59 302.034 2042.48 302.446 2041.3 302.446C2040.11 302.446 2039.14 302.778 2039.14 303.183C2039.14 303.589 2038.48 303.921 2037.67 303.921C2036.85 303.921 2036.19 304.253 2036.19 304.658C2036.19 305.064 2035.19 305.396 2033.97 305.396C2032.25 305.396 2031.76 305.068 2031.76 303.921C2031.76 303.11 2031.43 302.446 2031.02 302.446C2030.61 302.446 2030.28 301.45 2030.28 300.233C2030.28 299.017 2029.95 298.021 2029.54 298.021C2029.14 298.021 2028.81 297.357 2028.81 296.546C2028.81 295.735 2028.47 295.071 2028.07 295.071C2027.66 295.071 2027.33 294.076 2027.33 292.859C2027.33 291.138 2027.66 290.646 2028.81 290.646C2029.79 290.646 2030.28 291.138 2030.28 292.121C2030.28 292.932 2030.61 293.596 2031.02 293.596C2031.43 293.596 2031.76 294.26 2031.76 295.071C2031.76 295.882 2032.09 296.546 2032.5 296.546C2032.9 296.546 2033.24 297.542 2033.24 298.758C2033.24 300.725 2033.48 300.971 2035.45 300.971C2036.67 300.971 2037.67 300.639 2037.67 300.233C2037.67 299.828 2038.66 299.496 2039.88 299.496C2041.1 299.496 2042.1 299.164 2042.1 298.758C2042.1 298.353 2042.73 298.021 2043.51 298.021C2044.29 298.021 2045.06 297.609 2045.23 297.106C2045.64 295.887 2048 298.197 2048 299.812C2048 300.449 2048.33 300.971 2048.74 300.971C2049.15 300.971 2049.48 301.562 2049.48 302.283C2049.48 303.005 2050.14 304.073 2050.96 304.658C2051.77 305.243 2052.43 306.312 2052.43 307.034C2052.43 307.854 2052.99 308.346 2053.91 308.346C2054.72 308.346 2055.39 308.014 2055.39 307.608C2055.39 307.203 2056.38 306.871 2057.6 306.871C2058.82 306.871 2059.82 306.539 2059.82 306.133C2059.82 305.728 2060.48 305.396 2061.29 305.396C2062.1 305.396 2062.77 305.064 2062.77 304.658C2062.77 303.563 2064.93 303.766 2066.14 304.975C2066.72 305.554 2067.2 306.881 2067.2 307.925C2067.2 308.967 2067.53 309.821 2067.94 309.821C2068.34 309.821 2068.68 310.816 2068.68 312.033C2068.68 313.25 2069.01 314.245 2069.41 314.245C2069.82 314.245 2070.15 315.213 2070.15 316.397C2070.15 317.58 2070.55 318.681 2071.04 318.844Z" fill="#307280"/>
<path d="M2130.27 655.71C2128.9 655.71 2127.77 655.934 2127.77 656.208C2127.77 656.963 2126.3 656.805 2125.46 655.959C2124.79 655.294 2124.79 655.128 2125.46 654.463C2125.87 654.051 2127.01 653.715 2127.99 653.715C2128.97 653.715 2129.77 653.49 2129.77 653.216C2129.77 652.942 2130.22 652.717 2130.77 652.717C2131.54 652.717 2131.76 652.385 2131.76 651.221C2131.76 650.398 2131.54 649.725 2131.26 649.725C2130.99 649.725 2130.77 649.276 2130.77 648.728C2130.77 648.179 2130.54 647.73 2130.27 647.73C2129.99 647.73 2129.77 647.281 2129.77 646.733C2129.77 646.068 2130.1 645.735 2130.77 645.735C2131.31 645.735 2131.76 645.511 2131.76 645.237C2131.76 644.962 2132.57 644.738 2133.55 644.738C2134.53 644.738 2135.67 644.393 2136.09 643.971C2136.79 643.281 2136.76 643.113 2135.81 642.292C2135.23 641.79 2134.76 641.062 2134.76 640.675C2134.76 640.288 2134.31 639.648 2133.76 639.252C2133.21 638.857 2132.76 638.134 2132.76 637.646C2132.76 636.914 2133.2 636.758 2135.26 636.758C2136.63 636.758 2137.75 636.534 2137.75 636.26C2137.75 635.985 2138.65 635.761 2139.75 635.761C2140.84 635.761 2141.74 635.537 2141.74 635.262C2141.74 634.488 2144.22 634.675 2145.06 635.512C2146.24 636.695 2144.81 637.756 2142.03 637.756C2140.77 637.756 2139.75 637.98 2139.75 638.255C2139.75 638.529 2139.07 638.753 2138.25 638.753C2136.51 638.753 2136.35 639.238 2137.75 640.249C2138.3 640.645 2138.75 641.318 2138.75 641.746C2138.75 642.173 2139.2 642.846 2139.75 643.242C2140.3 643.637 2140.74 644.36 2140.74 644.848C2140.74 645.403 2140.37 645.735 2139.75 645.735C2139.2 645.735 2138.75 645.96 2138.75 646.234C2138.75 646.508 2137.85 646.733 2136.75 646.733C2135.66 646.733 2134.76 646.957 2134.76 647.231C2134.76 647.506 2134.31 647.73 2133.76 647.73C2133.21 647.73 2132.76 647.955 2132.76 648.229C2132.76 648.503 2132.99 648.728 2133.26 648.728C2133.54 648.728 2133.76 649.176 2133.76 649.725C2133.76 650.274 2133.98 650.722 2134.26 650.722C2134.53 650.722 2134.76 651.171 2134.76 651.72C2134.76 652.269 2134.98 652.717 2135.26 652.717C2135.53 652.717 2135.76 653.166 2135.76 653.715C2135.76 654.491 2135.42 654.712 2134.26 654.712C2133.44 654.712 2132.76 654.937 2132.76 655.211C2132.76 655.485 2131.64 655.71 2130.27 655.71Z" fill="#A5CC7E"/>
<path d="M2050.02 392.074C2050.02 394.804 2049.86 395.261 2048.4 396.794C2046.93 398.327 2046.5 398.494 2043.9 398.525C2042.3 398.545 2041.04 398.34 2041.04 398.061C2041.04 397.786 2040.68 397.562 2040.25 397.562C2039.24 397.562 2038.04 396.361 2038.04 395.353C2038.04 394.922 2037.82 394.57 2037.54 394.57C2037.27 394.57 2037.04 393.448 2037.04 392.076C2037.04 390.705 2037.27 389.583 2037.54 389.583C2037.82 389.583 2038.04 389.23 2038.04 388.799C2038.04 387.791 2039.24 386.59 2040.25 386.59C2040.68 386.59 2041.04 386.366 2041.04 386.092C2041.04 385.817 2042.28 385.593 2043.8 385.593C2046.28 385.593 2046.73 385.765 2048.29 387.322C2049.88 388.914 2050.02 389.289 2050.02 392.074Z" fill="#00A0FF"/>
<path d="M2070.88 601.038C2070.5 601.038 2069.87 601.487 2069.47 602.036C2069.08 602.584 2068.35 603.033 2067.87 603.033C2067.31 603.033 2066.98 602.66 2066.98 602.036C2066.98 601.487 2066.75 601.038 2066.48 601.038C2066.19 601.038 2065.98 599.542 2065.98 597.547C2065.98 595.552 2065.77 594.056 2065.48 594.056C2064.67 594.056 2064.91 591.56 2065.82 590.659C2066.42 590.053 2066.71 589.995 2066.86 590.445C2066.97 590.786 2067.72 591.064 2068.52 591.064C2069.32 591.064 2069.97 591.288 2069.97 591.563C2069.97 591.837 2070.42 592.061 2070.97 592.061C2071.52 592.061 2071.97 592.286 2071.97 592.56C2071.97 592.834 2072.64 593.059 2073.46 593.059C2074.29 593.059 2074.96 593.283 2074.96 593.558C2074.96 593.832 2075.41 594.056 2075.96 594.056C2076.7 594.056 2076.96 594.389 2076.96 595.338C2076.96 596.681 2075.94 598.046 2074.95 598.046C2074.63 598.046 2073.73 598.719 2072.97 599.542C2072.2 600.365 2071.26 601.038 2070.88 601.038Z" fill="#C31162"/>
<path d="M2690.15 433.787C2689.61 434.183 2689.16 434.905 2689.16 435.394C2689.16 436.047 2688.76 436.281 2687.66 436.281C2686.84 436.281 2686.16 436.056 2686.16 435.782C2686.16 435.508 2686.39 435.283 2686.66 435.283C2686.94 435.283 2687.16 434.835 2687.16 434.286C2687.16 433.737 2687.39 433.288 2687.66 433.288C2687.93 433.288 2688.16 432.944 2688.16 432.524C2688.16 431.823 2691.27 428.301 2691.88 428.301C2692.03 428.301 2692.15 428.975 2692.15 429.797C2692.15 430.62 2691.93 431.294 2691.65 431.294C2691.38 431.294 2691.15 431.693 2691.15 432.181C2691.15 432.669 2690.7 433.392 2690.15 433.787Z" fill="#496A5B"/>
<path d="M2699.02 429.299C2699.93 429.299 2702.13 431.575 2702.13 432.518C2702.13 432.956 2701.7 433.288 2701.13 433.288C2700.58 433.288 2700.13 433.064 2700.13 432.79C2700.13 432.515 2699.73 432.291 2699.25 432.291C2698.76 432.291 2698.03 431.842 2697.64 431.294C2697.24 430.745 2696.62 430.296 2696.25 430.296C2695.33 430.296 2694.15 429.049 2694.15 428.087C2694.15 426.918 2696.76 427.078 2697.64 428.301C2698.03 428.85 2698.66 429.299 2699.02 429.299Z" fill="#496A5B"/>
<path d="M2689.95 424.559C2690.99 425.597 2691.09 425.926 2690.55 426.535C2689.8 427.39 2689.16 427.514 2689.16 426.805C2689.16 426.531 2688.76 426.306 2688.27 426.306C2687.78 426.306 2687.06 425.858 2686.66 425.309C2686.27 424.76 2685.64 424.312 2685.27 424.312C2684.36 424.312 2683.17 423.064 2683.17 422.103C2683.17 420.934 2685.78 421.093 2686.66 422.317C2687.06 422.865 2687.68 423.314 2688.04 423.314C2688.41 423.314 2689.26 423.875 2689.95 424.559Z" fill="#496A5B"/>
<path d="M2696.14 422.815C2695.59 423.211 2695.14 423.934 2695.14 424.422C2695.14 424.976 2694.77 425.309 2694.15 425.309C2693.37 425.309 2693.15 424.976 2693.15 423.813C2693.15 422.99 2693.37 422.317 2693.65 422.317C2693.92 422.317 2694.15 421.917 2694.15 421.43C2694.15 420.941 2694.6 420.219 2695.14 419.823C2695.69 419.428 2696.14 418.705 2696.14 418.217C2696.14 417.662 2696.52 417.33 2697.14 417.33C2697.92 417.33 2698.14 417.662 2698.14 418.826C2698.14 419.649 2697.91 420.322 2697.64 420.322C2697.36 420.322 2697.14 420.721 2697.14 421.209C2697.14 421.697 2696.69 422.42 2696.14 422.815Z" fill="#496A5B"/>
<path d="M2376.46 249.78C2377.38 250.639 2377.95 251.676 2377.95 252.473C2377.95 253.437 2377.7 253.77 2376.95 253.77C2376.39 253.77 2375.96 253.437 2375.96 253.008C2375.96 252.139 2371.78 247.785 2370.94 247.785C2370.64 247.785 2369.53 248.683 2368.47 249.78C2367.42 250.877 2366.22 251.775 2365.81 251.775C2365.4 251.775 2364.97 252.051 2364.86 252.389C2364.74 252.741 2363.35 251.674 2361.6 249.896C2359.92 248.186 2358.25 246.788 2357.88 246.788C2357.52 246.788 2356.89 247.236 2356.5 247.785C2356.1 248.334 2355.47 248.782 2355.09 248.782C2354.71 248.782 2353.78 249.456 2353.01 250.279C2351.49 251.904 2350.01 252.248 2350.01 250.977C2350.01 250.539 2349.34 249.551 2348.52 248.782C2347.69 248.014 2347.02 247.075 2347.02 246.698C2347.02 246.32 2346.57 245.687 2346.02 245.291C2345.47 244.896 2345.02 244.192 2345.02 243.727C2345.02 243.262 2344.75 242.788 2344.4 242.675C2343.96 242.526 2344.03 242.224 2344.65 241.6C2345.43 240.828 2345.61 240.815 2346.27 241.48C2346.68 241.891 2347.02 242.491 2347.02 242.811C2347.02 243.132 2347.69 244.024 2348.52 244.793C2349.34 245.561 2350.01 246.453 2350.01 246.774C2350.01 247.095 2350.35 247.698 2350.77 248.114C2351.45 248.79 2351.68 248.707 2352.97 247.33C2353.76 246.483 2354.71 245.79 2355.09 245.79C2355.47 245.79 2356.1 245.341 2356.5 244.793C2357.57 243.301 2358.32 243.549 2360.99 246.289C2364.3 249.688 2365.66 249.684 2369 246.264L2371.45 243.745L2373.2 245.499C2374.17 246.464 2374.96 247.507 2374.96 247.817C2374.96 248.128 2375.63 249.011 2376.46 249.78Z" fill="#FFBD00"/>
<path d="M2296.48 630.73C2296.48 631.151 2295.98 632.036 2295.36 632.695C2294.41 633.705 2293.74 633.898 2291.1 633.924C2288.17 633.952 2287.85 633.841 2286.24 632.225C2285.2 631.193 2284.51 630.004 2284.51 629.275C2284.51 628.602 2284.23 627.922 2283.88 627.762C2283.38 627.529 2283.38 627.413 2283.88 627.18C2284.23 627.02 2284.51 626.339 2284.51 625.667C2284.51 624.938 2285.2 623.748 2286.24 622.717C2287.79 621.16 2288.24 620.988 2290.73 620.988C2292.25 620.988 2293.49 621.212 2293.49 621.486C2293.49 621.761 2293.84 621.985 2294.27 621.985C2295.28 621.985 2296.48 623.186 2296.48 624.194C2296.48 624.625 2296.71 624.977 2296.98 624.977C2297.25 624.977 2297.48 626.099 2297.48 627.471C2297.48 628.842 2297.25 629.964 2296.98 629.964C2296.71 629.964 2296.48 630.309 2296.48 630.73Z" fill="#C0D271"/>
<path d="M1198.23 107.309C1200.69 107.309 1202.7 106.907 1202.7 106.415C1202.7 105.062 1205.34 105.345 1206.86 106.862C1208.05 108.054 1208.05 108.353 1206.86 109.545C1206.12 110.282 1204.08 110.886 1202.32 110.886C1200.56 110.886 1199.12 111.288 1199.12 111.78C1199.12 112.272 1198.32 112.674 1197.34 112.674C1195.94 112.674 1195.55 113.27 1195.55 115.356C1195.55 116.832 1195.95 118.039 1196.44 118.039C1196.93 118.039 1197.34 118.843 1197.34 119.827C1197.34 120.81 1197.74 121.615 1198.23 121.615C1198.72 121.615 1199.12 122.42 1199.12 123.403C1199.12 124.595 1198.53 125.191 1197.34 125.191C1196.35 125.191 1195.55 125.594 1195.55 126.085C1195.55 126.577 1194.11 126.979 1192.35 126.979C1190.59 126.979 1188.54 127.598 1187.78 128.355C1186.54 129.592 1186.6 129.893 1188.29 131.365C1189.33 132.264 1190.18 133.569 1190.18 134.264C1190.18 134.957 1190.98 136.105 1191.97 136.814C1192.95 137.524 1193.76 138.819 1193.76 139.694C1193.76 141.007 1192.98 141.285 1189.29 141.285C1186.83 141.285 1184.81 141.687 1184.81 142.179C1184.81 142.671 1183.2 143.073 1181.24 143.073C1179.27 143.073 1177.66 143.475 1177.66 143.967C1177.66 145.355 1173.22 145.02 1171.72 143.52C1169.59 141.399 1172.16 139.497 1177.15 139.497C1179.4 139.497 1181.24 139.094 1181.24 138.603C1181.24 138.111 1182.44 137.709 1183.92 137.709C1187.04 137.709 1187.33 136.84 1184.81 135.026C1183.83 134.317 1183.02 133.11 1183.02 132.344C1183.02 131.578 1182.22 130.371 1181.24 129.662C1180.25 128.953 1179.45 127.657 1179.45 126.782C1179.45 125.788 1180.12 125.191 1181.24 125.191C1182.22 125.191 1183.02 124.789 1183.02 124.297C1183.02 123.805 1184.63 123.403 1186.6 123.403C1188.57 123.403 1190.18 123.001 1190.18 122.509C1190.18 122.017 1190.98 121.615 1191.97 121.615C1192.95 121.615 1193.76 121.213 1193.76 120.721C1193.76 120.229 1193.36 119.827 1192.86 119.827C1192.37 119.827 1191.97 119.022 1191.97 118.039C1191.97 117.055 1191.57 116.25 1191.07 116.25C1190.58 116.25 1190.18 115.446 1190.18 114.462C1190.18 113.479 1189.78 112.674 1189.29 112.674C1188.79 112.674 1188.39 111.869 1188.39 110.886C1188.39 109.495 1188.99 109.098 1191.07 109.098C1192.55 109.098 1193.76 108.695 1193.76 108.204C1193.76 107.712 1195.77 107.309 1198.23 107.309Z" fill="#A5CC7E"/>
<path d="M1342.1 579.953C1342.1 575.058 1342.39 574.238 1345.01 571.49C1347.64 568.742 1348.41 568.442 1353.06 568.387C1355.93 568.352 1358.2 568.719 1358.2 569.219C1358.2 569.711 1358.84 570.113 1359.61 570.113C1361.42 570.113 1363.57 572.266 1363.57 574.073C1363.57 574.846 1363.97 575.478 1364.46 575.478C1364.96 575.478 1365.36 577.489 1365.36 579.948C1365.36 582.407 1364.96 584.419 1364.46 584.419C1363.97 584.419 1363.57 585.051 1363.57 585.823C1363.57 587.63 1361.42 589.783 1359.61 589.783C1358.84 589.783 1358.2 590.185 1358.2 590.677C1358.2 591.169 1355.98 591.571 1353.25 591.571C1348.8 591.571 1348 591.262 1345.2 588.471C1342.35 585.617 1342.1 584.944 1342.1 579.953Z" fill="#00A0FF"/>
<path d="M559.464 224.653C560.142 224.653 561.277 223.848 561.986 222.864C562.695 221.881 563.992 221.076 564.867 221.076C565.862 221.076 566.458 221.746 566.458 222.864C566.458 223.848 566.861 224.653 567.353 224.653C567.864 224.653 568.247 227.335 568.247 230.911C568.247 234.488 568.631 237.17 569.142 237.17C570.6 237.17 570.16 241.645 568.542 243.261C567.457 244.347 566.949 244.451 566.679 243.644C566.475 243.033 565.136 242.534 563.701 242.534C562.266 242.534 561.092 242.132 561.092 241.64C561.092 241.149 560.287 240.746 559.303 240.746C558.319 240.746 557.514 240.344 557.514 239.852C557.514 239.36 556.306 238.958 554.831 238.958C553.355 238.958 552.147 238.556 552.147 238.064C552.147 237.572 551.342 237.17 550.358 237.17C549.034 237.17 548.569 236.573 548.569 234.871C548.569 232.464 550.385 230.017 552.171 230.017C552.747 230.017 554.347 228.81 555.725 227.335C557.103 225.86 558.787 224.653 559.464 224.653Z" fill="#C31162"/>
<path d="M194.467 505.168C195.451 504.459 196.256 503.163 196.256 502.288C196.256 501.117 196.963 500.697 198.939 500.697C200.415 500.697 201.623 501.1 201.623 501.591C201.623 502.083 201.22 502.485 200.728 502.485C200.236 502.485 199.834 503.29 199.834 504.274C199.834 505.257 199.431 506.062 198.939 506.062C198.447 506.062 198.045 506.679 198.045 507.432C198.045 508.689 192.474 515.003 191.366 515.003C191.104 515.003 190.889 513.796 190.889 512.32C190.889 510.845 191.292 509.638 191.784 509.638C192.276 509.638 192.678 508.922 192.678 508.048C192.678 507.172 193.483 505.877 194.467 505.168Z" fill="#496A5B"/>
<path d="M178.576 513.215C176.944 513.215 173 509.133 173 507.443C173 506.658 173.772 506.062 174.789 506.062C175.773 506.062 176.578 506.464 176.578 506.956C176.578 507.448 177.294 507.85 178.169 507.85C179.045 507.85 180.341 508.655 181.05 509.638C181.759 510.622 182.883 511.426 183.547 511.426C185.185 511.426 187.311 513.662 187.311 515.386C187.311 517.482 182.631 517.196 181.05 515.003C180.341 514.019 179.227 513.215 178.576 513.215Z" fill="#496A5B"/>
<path d="M194.835 521.711C192.975 519.851 192.795 519.26 193.759 518.169C195.11 516.636 196.256 516.415 196.256 517.685C196.256 518.177 196.972 518.579 197.847 518.579C198.723 518.579 200.019 519.384 200.728 520.367C201.437 521.351 202.561 522.156 203.225 522.156C204.863 522.156 206.989 524.392 206.989 526.115C206.989 528.211 202.31 527.925 200.728 525.732C200.019 524.748 198.905 523.944 198.254 523.944C197.602 523.944 196.064 522.939 194.835 521.711Z" fill="#496A5B"/>
<path d="M183.733 524.838C184.717 524.129 185.522 522.833 185.522 521.958C185.522 520.964 186.192 520.367 187.311 520.367C188.703 520.367 189.1 520.964 189.1 523.05C189.1 524.525 188.698 525.732 188.206 525.732C187.714 525.732 187.311 526.448 187.311 527.322C187.311 528.198 186.506 529.493 185.522 530.202C184.538 530.911 183.733 532.207 183.733 533.082C183.733 534.076 183.064 534.673 181.945 534.673C180.553 534.673 180.156 534.076 180.156 531.991C180.156 530.515 180.558 529.308 181.05 529.308C181.542 529.308 181.945 528.592 181.945 527.718C181.945 526.842 182.75 525.547 183.733 524.838Z" fill="#496A5B"/>
<path d="M918.709 60.7311C918.709 59.9765 919.615 58.3912 920.721 57.2092C922.418 55.3978 923.615 55.0527 928.354 55.0062C933.607 54.9552 934.177 55.1546 937.075 58.0515C938.925 59.9014 940.176 62.0338 940.176 63.3409C940.176 64.5462 940.679 65.7666 941.294 66.0536C942.188 66.4703 942.188 66.6795 941.294 67.0961C940.679 67.3831 940.176 68.6036 940.176 69.8088C940.176 71.116 938.925 73.2484 937.075 75.0983C934.284 77.8887 933.48 78.1981 929.025 78.1981C926.303 78.1981 924.076 77.7957 924.076 77.304C924.076 76.8122 923.443 76.4099 922.67 76.4099C920.863 76.4099 918.709 74.2569 918.709 72.45C918.709 71.6775 918.306 71.0453 917.814 71.0453C917.322 71.0453 916.92 69.0336 916.92 66.5749C916.92 64.1161 917.322 62.1044 917.814 62.1044C918.306 62.1044 918.709 61.4866 918.709 60.7311Z" fill="#C0D271"/>
<path d="M2092.76 693.688C2092.74 692.549 2093.38 692.411 2095.2 693.163C2098.24 694.421 2098.23 694.404 2096.93 697.087C2096.35 698.299 2094.54 699.749 2092.92 700.31C2091.31 700.871 2090.16 701.845 2090.38 702.475C2090.6 703.104 2089.23 704.155 2087.34 704.81C2085.46 705.464 2084.09 706.515 2084.31 707.144C2084.53 707.774 2083.68 708.646 2082.42 709.083C2080.89 709.611 2080.4 710.639 2080.93 712.165C2081.36 713.424 2082.24 714.276 2082.86 714.058C2083.49 713.84 2084.54 715.206 2085.2 717.095C2085.85 718.984 2086.91 720.351 2087.54 720.132C2088.16 719.914 2089.04 720.766 2089.47 722.025C2089.91 723.284 2090.78 724.136 2091.41 723.918C2092.04 723.699 2092.91 724.551 2093.35 725.81C2093.88 727.336 2093.38 728.364 2091.86 728.893C2090.6 729.329 2089.75 730.202 2089.97 730.831C2090.18 731.461 2089.45 732.294 2088.33 732.682C2087.21 733.07 2085.91 734.675 2085.44 736.249C2084.97 737.822 2083.89 739.351 2083.04 739.646C2080.71 740.452 2078.6 745.334 2080.58 745.31C2081.46 745.3 2082.69 746.793 2083.33 748.629C2083.96 750.467 2085 751.79 2085.63 751.572C2086.26 751.353 2087.13 752.205 2087.57 753.464C2088 754.723 2088.88 755.575 2089.5 755.357C2090.13 755.139 2091.18 756.505 2091.84 758.394C2092.77 761.065 2092.52 762.004 2090.74 762.621C2089.49 763.058 2088.63 763.93 2088.85 764.56C2089.07 765.189 2087.71 766.24 2085.82 766.894C2083.93 767.549 2082.57 768.6 2082.78 769.229C2083 769.859 2082.15 770.731 2080.89 771.167C2079.64 771.604 2078.78 772.476 2079 773.105C2079.22 773.735 2077.86 774.786 2075.97 775.44C2073.3 776.366 2072.36 776.122 2071.74 774.341C2071.21 772.815 2071.71 771.787 2073.24 771.258C2074.49 770.822 2075.34 769.95 2075.13 769.32C2074.91 768.691 2075.76 767.819 2077.02 767.382C2078.28 766.946 2079.13 766.074 2078.91 765.444C2078.69 764.815 2080.05 763.764 2081.94 763.109C2084.99 762.051 2085.24 761.538 2084.18 758.485C2083.53 756.596 2082.48 755.23 2081.85 755.448C2081.22 755.666 2080.17 754.299 2079.51 752.411C2078.86 750.522 2077.81 749.155 2077.18 749.373C2076.55 749.591 2075.69 748.783 2075.27 747.576C2074.85 746.369 2073.8 745.391 2072.93 745.401C2070.82 745.426 2073.13 740.518 2075.63 739.649C2076.62 739.306 2077.25 738.511 2077.03 737.881C2076.81 737.252 2077.55 736.419 2078.67 736.031C2079.79 735.642 2081.09 734.037 2081.56 732.464C2082.03 730.89 2083.33 729.285 2084.45 728.896C2085.72 728.455 2086.19 727.333 2085.69 725.901C2085.26 724.642 2084.38 723.79 2083.75 724.009C2083.12 724.227 2082.07 722.86 2081.42 720.971C2080.76 719.083 2079.71 717.716 2079.08 717.934C2078.45 718.152 2077.58 717.301 2077.14 716.042C2076.71 714.782 2075.84 713.931 2075.21 714.149C2073.51 714.738 2072.66 711.272 2073.88 708.746C2074.47 707.535 2076.27 706.085 2077.89 705.524C2079.51 704.963 2080.65 703.989 2080.43 703.359C2080.21 702.73 2081.58 701.679 2083.47 701.024C2085.36 700.37 2086.72 699.319 2086.5 698.69C2086.28 698.06 2087.61 697.024 2089.44 696.388C2091.28 695.751 2092.77 694.536 2092.76 693.688Z" fill="#307280"/>
<path d="M2130.66 55.8924C2132.91 55.8924 2134.75 55.524 2134.75 55.0738C2134.75 53.8344 2137.17 54.0939 2138.56 55.4831C2139.65 56.5742 2139.65 56.8477 2138.56 57.9388C2137.88 58.6142 2136.01 59.1667 2134.4 59.1667C2132.79 59.1667 2131.48 59.5351 2131.48 59.9853C2131.48 60.4356 2130.74 60.8039 2129.84 60.8039C2128.57 60.8039 2128.2 61.3499 2128.2 63.2597C2128.2 64.6104 2128.57 65.7155 2129.02 65.7155C2129.47 65.7155 2129.84 66.4522 2129.84 67.3527C2129.84 68.2531 2130.21 68.9899 2130.66 68.9899C2131.11 68.9899 2131.48 69.7266 2131.48 70.6271C2131.48 71.7182 2130.93 72.2642 2129.84 72.2642C2128.94 72.2642 2128.2 72.6326 2128.2 73.0828C2128.2 73.5331 2126.89 73.9014 2125.28 73.9014C2123.67 73.9014 2121.79 74.4679 2121.09 75.1604C2119.96 76.2934 2120.01 76.5692 2121.56 77.9166C2122.51 78.7402 2123.29 79.9345 2123.29 80.5705C2123.29 81.2058 2124.02 82.2568 2124.93 82.906C2125.83 83.5551 2126.56 84.7413 2126.56 85.5427C2126.56 86.7444 2125.85 86.999 2122.47 86.999C2120.22 86.999 2118.37 87.3673 2118.37 87.8176C2118.37 88.2678 2116.9 88.6362 2115.1 88.6362C2113.3 88.6362 2111.82 89.0045 2111.82 89.4547C2111.82 90.7252 2107.76 90.419 2106.38 89.0454C2104.44 87.1037 2106.79 85.3618 2111.36 85.3618C2113.41 85.3618 2115.1 84.9934 2115.1 84.5432C2115.1 84.0929 2116.2 83.7246 2117.56 83.7246C2120.41 83.7246 2120.68 82.9289 2118.37 81.2688C2117.47 80.6196 2116.74 79.5145 2116.74 78.813C2116.74 78.1115 2116 77.0064 2115.1 76.3572C2114.2 75.7081 2113.46 74.5219 2113.46 73.7205C2113.46 72.8103 2114.07 72.2642 2115.1 72.2642C2116 72.2642 2116.74 71.8959 2116.74 71.4457C2116.74 70.9954 2118.21 70.6271 2120.01 70.6271C2121.81 70.6271 2123.29 70.2587 2123.29 69.8085C2123.29 69.3582 2124.02 68.9899 2124.93 68.9899C2125.83 68.9899 2126.56 68.6215 2126.56 68.1713C2126.56 67.721 2126.2 67.3527 2125.74 67.3527C2125.29 67.3527 2124.93 66.6159 2124.93 65.7155C2124.93 64.815 2124.56 64.0783 2124.11 64.0783C2123.66 64.0783 2123.29 63.3416 2123.29 62.4411C2123.29 61.5407 2122.92 60.8039 2122.47 60.8039C2122.02 60.8039 2121.65 60.0672 2121.65 59.1667C2121.65 57.893 2122.2 57.5295 2124.11 57.5295C2125.46 57.5295 2126.56 57.1612 2126.56 56.7109C2126.56 56.2607 2128.41 55.8924 2130.66 55.8924Z" fill="#A5CC7E"/>
<path d="M2262.38 488.625C2262.38 484.144 2262.64 483.393 2265.04 480.877C2267.45 478.361 2268.16 478.087 2272.42 478.036C2275.05 478.004 2277.12 478.34 2277.12 478.798C2277.12 479.248 2277.7 479.617 2278.41 479.617C2280.07 479.617 2282.04 481.588 2282.04 483.242C2282.04 483.949 2282.41 484.528 2282.86 484.528C2283.31 484.528 2283.68 486.37 2283.68 488.621C2283.68 490.872 2283.31 492.714 2282.86 492.714C2282.41 492.714 2282.04 493.293 2282.04 494C2282.04 495.654 2280.07 497.626 2278.41 497.626C2277.7 497.626 2277.12 497.994 2277.12 498.444C2277.12 498.894 2275.08 499.263 2272.59 499.263C2268.51 499.263 2267.78 498.98 2265.22 496.425C2262.61 493.811 2262.38 493.195 2262.38 488.625Z" fill="#00A0FF"/>
<path d="M1545.83 163.327C1546.45 163.327 1547.49 162.59 1548.14 161.689C1548.79 160.789 1549.98 160.052 1550.78 160.052C1551.69 160.052 1552.23 160.665 1552.23 161.689C1552.23 162.59 1552.6 163.327 1553.05 163.327C1553.52 163.327 1553.87 165.782 1553.87 169.057C1553.87 172.331 1554.22 174.787 1554.69 174.787C1556.03 174.787 1555.62 178.884 1554.14 180.364C1553.15 181.358 1552.68 181.454 1552.44 180.714C1552.25 180.155 1551.02 179.699 1549.71 179.699C1548.4 179.699 1547.32 179.33 1547.32 178.88C1547.32 178.43 1546.58 178.061 1545.68 178.061C1544.78 178.061 1544.05 177.693 1544.05 177.243C1544.05 176.793 1542.94 176.424 1541.59 176.424C1540.24 176.424 1539.13 176.056 1539.13 175.606C1539.13 175.155 1538.4 174.787 1537.49 174.787C1536.28 174.787 1535.86 174.241 1535.86 172.682C1535.86 170.479 1537.52 168.238 1539.15 168.238C1539.68 168.238 1541.15 167.133 1542.41 165.782C1543.67 164.432 1545.21 163.327 1545.83 163.327Z" fill="#C31162"/>
<path d="M1211.65 420.155C1212.56 419.506 1213.29 418.32 1213.29 417.518C1213.29 416.446 1213.94 416.062 1215.75 416.062C1217.1 416.062 1218.21 416.43 1218.21 416.881C1218.21 417.331 1217.84 417.699 1217.39 417.699C1216.94 417.699 1216.57 418.436 1216.57 419.336C1216.57 420.237 1216.2 420.974 1215.75 420.974C1215.3 420.974 1214.93 421.538 1214.93 422.228C1214.93 423.379 1209.83 429.16 1208.82 429.16C1208.58 429.16 1208.38 428.054 1208.38 426.704C1208.38 425.353 1208.75 424.248 1209.2 424.248C1209.65 424.248 1210.02 423.592 1210.02 422.792C1210.02 421.99 1210.75 420.804 1211.65 420.155Z" fill="#496A5B"/>
<path d="M1197.11 427.522C1195.61 427.522 1192 423.785 1192 422.238C1192 421.52 1192.71 420.974 1193.64 420.974C1194.54 420.974 1195.28 421.342 1195.28 421.792C1195.28 422.242 1195.93 422.611 1196.73 422.611C1197.53 422.611 1198.72 423.347 1199.37 424.248C1200.02 425.148 1201.05 425.885 1201.66 425.885C1203.16 425.885 1205.1 427.932 1205.1 429.511C1205.1 431.429 1200.82 431.168 1199.37 429.16C1198.72 428.259 1197.7 427.522 1197.11 427.522Z" fill="#496A5B"/>
<path d="M1211.99 435.301C1210.29 433.599 1210.12 433.058 1211.01 432.058C1212.24 430.655 1213.29 430.452 1213.29 431.615C1213.29 432.066 1213.95 432.434 1214.75 432.434C1215.55 432.434 1216.74 433.171 1217.39 434.071C1218.04 434.972 1219.06 435.708 1219.67 435.708C1221.17 435.708 1223.12 437.756 1223.12 439.334C1223.12 441.253 1218.83 440.991 1217.39 438.983C1216.74 438.082 1215.72 437.345 1215.12 437.345C1214.52 437.345 1213.12 436.425 1211.99 435.301Z" fill="#496A5B"/>
<path d="M1201.83 438.164C1202.73 437.515 1203.46 436.329 1203.46 435.527C1203.46 434.617 1204.08 434.071 1205.1 434.071C1206.38 434.071 1206.74 434.617 1206.74 436.527C1206.74 437.878 1206.37 438.983 1205.92 438.983C1205.47 438.983 1205.1 439.638 1205.1 440.439C1205.1 441.24 1204.37 442.427 1203.46 443.076C1202.56 443.725 1201.83 444.911 1201.83 445.712C1201.83 446.623 1201.21 447.169 1200.19 447.169C1198.92 447.169 1198.55 446.623 1198.55 444.713C1198.55 443.362 1198.92 442.257 1199.37 442.257C1199.82 442.257 1200.19 441.601 1200.19 440.801C1200.19 439.999 1200.93 438.813 1201.83 438.164Z" fill="#496A5B"/>
<path d="M1726.56 722.189C1725.05 720.779 1724.1 719.076 1724.1 717.768C1724.1 716.187 1724.52 715.641 1725.74 715.641C1726.66 715.641 1727.38 716.187 1727.38 716.89C1727.38 718.317 1734.24 725.464 1735.61 725.464C1736.11 725.464 1737.93 723.99 1739.66 722.189C1741.39 720.388 1743.36 718.915 1744.03 718.915C1744.71 718.915 1745.41 718.461 1745.59 717.906C1745.79 717.329 1748.07 719.08 1750.94 721.999C1753.7 724.805 1756.44 727.101 1757.04 727.101C1757.64 727.101 1758.67 726.364 1759.32 725.464C1759.97 724.563 1761.01 723.827 1761.63 723.827C1762.25 723.827 1763.79 722.721 1765.05 721.371C1767.54 718.703 1769.96 718.138 1769.96 720.224C1769.96 720.943 1771.07 722.565 1772.42 723.827C1773.77 725.088 1774.88 726.629 1774.88 727.248C1774.88 727.869 1775.61 728.908 1776.51 729.557C1777.41 730.206 1778.15 731.362 1778.15 732.125C1778.15 732.888 1778.61 733.665 1779.17 733.852C1779.9 734.095 1779.78 734.591 1778.76 735.616C1777.49 736.882 1777.2 736.904 1776.1 735.813C1775.43 735.138 1774.88 734.154 1774.88 733.628C1774.88 733.1 1773.77 731.637 1772.42 730.375C1771.07 729.114 1769.96 727.65 1769.96 727.123C1769.96 726.597 1769.4 725.607 1768.72 724.924C1767.61 723.814 1767.23 723.951 1765.12 726.21C1763.82 727.6 1762.25 728.738 1761.63 728.738C1761.01 728.738 1759.97 729.475 1759.32 730.375C1757.55 732.824 1756.33 732.417 1751.95 727.919C1746.51 722.34 1744.27 722.347 1738.8 727.96L1734.78 732.094L1731.9 729.215C1730.31 727.632 1729.02 725.92 1729.02 725.41C1729.02 724.901 1727.91 723.451 1726.56 722.189Z" fill="#FFBD00"/>
<path d="M1874.74 13.2471C1874.74 12.5563 1875.57 11.1049 1876.58 10.0227C1878.14 8.36422 1879.23 8.04825 1883.57 8.00569C1888.38 7.95903 1888.9 8.14156 1891.56 10.7938C1893.25 12.4875 1894.39 14.4398 1894.39 15.6366C1894.39 16.7401 1894.86 17.8575 1895.42 18.1202C1896.24 18.5017 1896.24 18.6932 1895.42 19.0747C1894.86 19.3375 1894.39 20.4549 1894.39 21.5583C1894.39 22.7551 1893.25 24.7075 1891.56 26.4011C1889 28.956 1888.26 29.2392 1884.19 29.2392C1881.69 29.2392 1879.65 28.8708 1879.65 28.4206C1879.65 27.9704 1879.07 27.602 1878.37 27.602C1876.71 27.602 1874.74 25.6308 1874.74 23.9765C1874.74 23.2692 1874.37 22.6904 1873.92 22.6904C1873.47 22.6904 1873.1 20.8486 1873.1 18.5975C1873.1 16.3463 1873.47 14.5045 1873.92 14.5045C1874.37 14.5045 1874.74 13.9389 1874.74 13.2471Z" fill="#C0D271"/>
<rect x="-73" y="-90" width="3234" height="915" fill="white" fill-opacity="0.79"/>
</g>
<defs>
<clipPath id="clip0">
<rect width="3121" height="798" fill="white"/>
</clipPath>
</defs>
</svg></svg>