<svg xmlns="http://www.w3.org/2000/svg" viewBox="0 0 195.62 259.22"><defs><style>.cls-1{fill:#ccffeb;}.cls-2{fill:#30e0a0;}.cls-3{fill:none;stroke:#30e0a0;stroke-miterlimit:10;stroke-width:5px;}</style></defs><title>final</title><g id="Layer_2" data-name="Layer 2"><g id="Layer_1-2" data-name="Layer 1"><path class="cls-1" d="M111.89,9.37a65.44,65.44,0,0,1-72.62,107,65.47,65.47,0,1,0,72.62-107Z"/><path class="cls-1" d="M164.75,135.49h-.47v18.95A10.28,10.28,0,0,1,154,164.72H44.1v.47a10.28,10.28,0,0,0,10.28,10.28H164.75A10.28,10.28,0,0,0,175,165.19V145.76A10.27,10.27,0,0,0,164.75,135.49Z"/><path class="cls-1" d="M128.66,175.47h-.48v18.95a10.27,10.27,0,0,1-10.27,10.28H8v.47a10.27,10.27,0,0,0,10.27,10.28H128.66a10.27,10.27,0,0,0,10.27-10.28V185.74A10.27,10.27,0,0,0,128.66,175.47Z"/><path class="cls-1" d="M141.43,215.45H141v19a10.27,10.27,0,0,1-10.27,10.28H20.78v.48a10.27,10.27,0,0,0,10.27,10.27H141.43a10.27,10.27,0,0,0,10.27-10.27V225.72A10.27,10.27,0,0,0,141.43,215.45Z"/><path class="cls-2" d="M164.75,178.55H54.38A13.37,13.37,0,0,1,41,165.19V145.76A13.37,13.37,0,0,1,54.38,132.4H164.75a13.37,13.37,0,0,1,13.36,13.36v19.43A13.37,13.37,0,0,1,164.75,178.55Zm-110.37-40a7.2,7.2,0,0,0-7.19,7.19v19.43a7.19,7.19,0,0,0,7.19,7.19H164.75a7.19,7.19,0,0,0,7.19-7.19V145.76a7.2,7.2,0,0,0-7.19-7.19Z"/><path class="cls-2" d="M128.66,218.53H18.28A13.37,13.37,0,0,1,4.92,205.17V185.74a13.37,13.37,0,0,1,13.36-13.36H128.66A13.37,13.37,0,0,1,142,185.74v19.43A13.37,13.37,0,0,1,128.66,218.53Zm-110.38-40a7.2,7.2,0,0,0-7.19,7.19v19.43a7.2,7.2,0,0,0,7.19,7.19H128.66a7.2,7.2,0,0,0,7.19-7.19V185.74a7.2,7.2,0,0,0-7.19-7.19Z"/><path class="cls-2" d="M141.43,258.51H31.05a13.38,13.38,0,0,1-13.36-13.36V225.72a13.38,13.38,0,0,1,13.36-13.36H141.43a13.37,13.37,0,0,1,13.36,13.36v19.43A13.37,13.37,0,0,1,141.43,258.51Zm-110.38-40a7.2,7.2,0,0,0-7.19,7.19v19.43a7.2,7.2,0,0,0,7.19,7.19H141.43a7.2,7.2,0,0,0,7.19-7.19V225.72a7.2,7.2,0,0,0-7.19-7.19Z"/><path class="cls-2" d="M84,137.22a68.61,68.61,0,1,1,68.61-68.61A68.69,68.69,0,0,1,84,137.22Zm0-131a62.44,62.44,0,1,0,62.44,62.44A62.51,62.51,0,0,0,84,6.17Z"/><path class="cls-2" d="M34.9,92.84a55.28,55.28,0,0,1-2.43-5.71L38.28,85a47.13,47.13,0,0,0,2.15,5.06Z"/><path class="cls-2" d="M84,123.37A55,55,0,0,1,36.6,96l5.34-3.09a48.62,48.62,0,0,0,83.4,1.27l5.24,3.25A54.47,54.47,0,0,1,84,123.37Z"/><path class="cls-2" d="M133.14,92.84l-5.53-2.73A48.16,48.16,0,0,0,129.76,85l5.81,2.09A54.37,54.37,0,0,1,133.14,92.84Z"/><path class="cls-2" d="M118.38,34.25A48.66,48.66,0,0,0,62.51,25l-2.73-5.53a54.81,54.81,0,0,1,63,10.4Z"/><path class="cls-2" d="M48.4,35.56l-4.52-4.2a54.86,54.86,0,0,1,7.63-6.82l3.67,5A48.77,48.77,0,0,0,48.4,35.56Z"/><path class="cls-1" d="M78.82,56.35l-4,37.09a4,4,0,0,0,4,4.38H89.28a4,4,0,0,0,4-4.38L89.48,56.26a10.72,10.72,0,1,0-10.92,0Z"/><path class="cls-2" d="M89.28,100.9H78.76a7.06,7.06,0,0,1-7-7.77l3.8-35.2a13.65,13.65,0,0,1-5.32-10.85,13.8,13.8,0,0,1,27.6,0,13.61,13.61,0,0,1-5.09,10.66l3.58,35.39a7.07,7.07,0,0,1-7,7.77ZM79.93,53.48l1.95.74v2.47l-4,37.08a.89.89,0,0,0,.89,1H89.28a.87.87,0,0,0,.66-.29.91.91,0,0,0,.23-.69l-4-39.14,1.68-1a7.55,7.55,0,0,0,3.75-6.53,7.63,7.63,0,0,0-15.26,0A7.55,7.55,0,0,0,79.93,53.48Z"/><line class="cls-3" y1="256.72" x2="195.62" y2="256.72"/></g></g></svg>