<?xml version="1.0" encoding="utf-8"?>
<!-- Generator: Adobe Illustrator 19.0.0, SVG Export Plug-In . SVG Version: 6.00 Build 0)  -->
<svg version="1.1" id="Layer_1" xmlns="http://www.w3.org/2000/svg" xmlns:xlink="http://www.w3.org/1999/xlink" x="0px" y="0px"
	 viewBox="-49 141 512 512" style="enable-background:new -49 141 512 512;" xml:space="preserve">
<style type="text/css">
	.st0{fill:#FFFFFF;}
	.st1{fill:#CCFFEB;}
	.st2{fill:#30E0A0;}
</style>
<g>
	<path class="st0" d="M404.9,215.1c0,17.7-14.3,32-32,32c-17.7,0-32-14.3-32-32c0-17.7,14.3-32,32-32
		C390.6,183.1,404.9,197.4,404.9,215.1z"/>
	<path class="st0" d="M73.1,578.9c0,17.7-14.3,32-32,32c-17.7,0-32-14.3-32-32c0-17.7,14.3-32,32-32
		C58.7,546.9,73.1,561.3,73.1,578.9z"/>
	<path class="st1" d="M351.8,365.6c-3.8-17.7-10.8-34.3-20.3-49l19.2-19.2l-44.2-44.2l-19.1,19.1c-14.8-9.5-31.3-16.5-49-20.3V225
		h-62.5v27.1c-17.7,3.8-34.3,10.8-49,20.3l-19.1-19.1l-44.2,44.2l19.2,19.2c-9.5,14.8-16.5,31.3-20.3,49H35l0,62.5h27.2
		c3.8,17.7,10.8,34.3,20.3,49l-19.2,19.2l44.2,44.2l19.3-19.3c14.8,9.5,31.3,16.5,49,20.3V569h62.5v-27.3
		c17.7-3.8,34.3-10.8,49-20.3l19.3,19.3l44.2-44.2l-19.2-19.2c9.5-14.8,16.5-31.3,20.3-49H379v-62.5H351.8z M207,469.6
		c-40.1,0-72.6-32.5-72.6-72.6s32.5-72.6,72.6-72.6s72.6,32.5,72.6,72.6S247.1,469.6,207,469.6z"/>
	<path class="st2" d="M41.1,536.9c-7.2,0-14.1,1.8-20.2,5.1C-11.3,500.8-29,449.5-29,397c0-130.1,105.9-236,236-236
		c15.8,0,31.6,1.6,47,4.7c5.4,1.1,10.7-2.4,11.8-7.8s-2.4-10.7-7.8-11.8c-16.7-3.4-33.8-5.1-51-5.1c-68.4,0-132.7,26.6-181,75
		s-75,112.6-75,181c0,57.5,19.5,113.7,55.1,158.7c-4.6,6.8-7,14.9-7,23.3c0,11.2,4.4,21.8,12.3,29.7c7.9,7.9,18.5,12.3,29.7,12.3
		s21.8-4.4,29.7-12.3c7.9-7.9,12.3-18.5,12.3-29.7c0-11.2-4.4-21.8-12.3-29.7C62.8,541.3,52.3,536.9,41.1,536.9z M56.6,594.5
		c-4.2,4.2-9.7,6.4-15.6,6.4s-11.4-2.3-15.6-6.4s-6.4-9.7-6.4-15.6c0-5.9,2.3-11.4,6.4-15.6c4.2-4.2,9.7-6.4,15.6-6.4
		s11.4,2.3,15.6,6.4c4.2,4.2,6.4,9.7,6.4,15.6C63.1,584.8,60.8,590.3,56.6,594.5z"/>
	<path class="st2" d="M407.9,238.3c10.9-16.3,9.1-38.6-5.3-53c-7.9-7.9-18.5-12.3-29.7-12.3s-21.8,4.4-29.7,12.3
		c-7.9,7.9-12.3,18.5-12.3,29.7s4.4,21.8,12.3,29.7s18.5,12.3,29.7,12.3c7.2,0,14.1-1.8,20.2-5.1C425.3,293.2,443,344.5,443,397
		c0,130.1-105.9,236-236,236c-15.7,0-31.3-1.5-46.6-4.6c-5.4-1.1-10.7,2.4-11.8,7.8c-1.1,5.4,2.4,10.7,7.8,11.8
		c16.5,3.3,33.5,5,50.5,5c68.4,0,132.7-26.6,181-75s75-112.6,75-181C463,339.5,443.5,283.3,407.9,238.3z M357.4,230.6
		c-4.2-4.2-6.4-9.7-6.4-15.6c0-5.9,2.3-11.4,6.4-15.6c4.2-4.2,9.7-6.4,15.6-6.4s11.4,2.3,15.6,6.4c8.6,8.6,8.6,22.5,0,31.1
		c-4.2,4.2-9.7,6.4-15.6,6.4C367.1,237.1,361.5,234.8,357.4,230.6z"/>
	<path class="st2" d="M165.7,569c0,5.5,4.5,10,10,10h62.5c5.5,0,10-4.5,10-10v-19.4c13.1-3.5,25.7-8.8,37.5-15.6l13.7,13.7
		c1.9,1.9,4.4,2.9,7.1,2.9c2.6,0,5.2-1.1,7.1-2.9l44.2-44.2c3.9-3.9,3.9-10.2,0-14.1l-13.7-13.7c6.8-11.8,12-24.4,15.6-37.5H379
		c5.5,0,10-4.5,10-10v-62.5c0-5.5-4.5-10-10-10h-19.3c-3.5-13.1-8.7-25.7-15.6-37.5l13.6-13.6c1.9-1.9,2.9-4.4,2.9-7.1
		c0-2.7-1.1-5.2-2.9-7.1l-44.2-44.2c-3.9-3.9-10.2-3.9-14.1,0l-13.6,13.6c-11.8-6.8-24.4-12-37.5-15.6V225c0-5.5-4.5-10-10-10h-62.5
		c-5.5,0-10,4.5-10,10v19.2c-13.1,3.5-25.7,8.7-37.5,15.6l-13.6-13.6c-3.9-3.9-10.2-3.9-14.1,0l-44.2,44.2c-1.9,1.9-2.9,4.4-2.9,7.1
		s1.1,5.2,2.9,7.1l13.6,13.6c-6.8,11.8-12,24.4-15.6,37.5H35c-5.5,0-10,4.5-10,10l0,62.5c0,2.7,1.1,5.2,2.9,7.1s4.4,2.9,7.1,2.9
		h19.3c3.5,13.1,8.8,25.7,15.6,37.5l-13.7,13.7c-3.9,3.9-3.9,10.2,0,14.1l44.2,44.2c1.9,1.9,4.4,2.9,7.1,2.9h0
		c2.7,0,5.2-1.1,7.1-2.9l13.7-13.7c11.8,6.8,24.4,12,37.5,15.6V569z M132.1,513c-4-2.6-9.2-2-12.5,1.3l-12.2,12.2l-30.1-30.1
		l12.2-12.2c3.3-3.3,3.9-8.5,1.3-12.5c-9.1-14-15.4-29.4-18.9-45.7c-1-4.6-5.1-7.9-9.8-7.9H45l0-42.5h17.2c4.7,0,8.8-3.3,9.8-7.9
		c3.5-16.3,9.9-31.7,18.9-45.7c2.6-4,2-9.2-1.3-12.5l-12.1-12.1l30.1-30.1l12.1,12.1c3.3,3.3,8.5,3.9,12.5,1.3
		c14-9.1,29.4-15.4,45.7-18.9c4.6-1,7.9-5.1,7.9-9.8V235h42.5v17.1c0,4.7,3.3,8.8,7.9,9.8c16.3,3.5,31.7,9.9,45.7,18.9
		c4,2.6,9.2,2,12.5-1.3l12.1-12.1l30.1,30.1l-12.1,12.1c-3.3,3.3-3.9,8.5-1.3,12.5c9.1,14,15.4,29.4,18.9,45.7
		c1,4.6,5.1,7.9,9.8,7.9H369v42.5h-17.2c-4.7,0-8.8,3.3-9.8,7.9c-3.5,16.3-9.9,31.7-18.9,45.7c-2.6,4-2,9.2,1.3,12.5l12.2,12.2
		l-30.1,30.1l-12.2-12.2c-3.3-3.3-8.5-3.9-12.5-1.3c-14,9.1-29.4,15.4-45.7,18.9c-4.6,1-7.9,5.1-7.9,9.8V559h-42.5v-17.3
		c0-4.7-3.3-8.8-7.9-9.8C161.5,528.5,146.2,522.1,132.1,513z"/>
	<path class="st2" d="M289.6,397c0-45.6-37.1-82.6-82.6-82.6s-82.6,37.1-82.6,82.6s37.1,82.6,82.6,82.6S289.6,442.6,289.6,397z
		 M144.4,397c0-34.5,28.1-62.6,62.6-62.6s62.6,28.1,62.6,62.6s-28.1,62.6-62.6,62.6S144.4,431.5,144.4,397z"/>
	<path class="st2" d="M299.1,178.8c2.6,0,5.2-1.1,7.1-2.9c1.9-1.9,2.9-4.4,2.9-7.1c0-2.6-1.1-5.2-2.9-7.1c-1.9-1.9-4.4-2.9-7.1-2.9
		c-2.6,0-5.2,1.1-7.1,2.9c-1.9,1.9-2.9,4.4-2.9,7.1c0,2.6,1.1,5.2,2.9,7.1C293.9,177.8,296.4,178.8,299.1,178.8z"/>
	<path class="st2" d="M115.4,615.4c-2.6,0-5.2,1.1-7.1,2.9s-2.9,4.4-2.9,7.1c0,2.6,1.1,5.2,2.9,7.1s4.4,2.9,7.1,2.9s5.2-1.1,7.1-2.9
		s2.9-4.4,2.9-7.1s-1.1-5.2-2.9-7.1S118,615.4,115.4,615.4z"/>
</g>
</svg>
