<?xml version="1.0" encoding="utf-8"?>
<!-- Generator: Adobe Illustrator 19.0.0, SVG Export Plug-In . SVG Version: 6.00 Build 0)  -->
<svg version="1.1" id="Layer_1" xmlns="http://www.w3.org/2000/svg" xmlns:xlink="http://www.w3.org/1999/xlink" x="0px" y="0px"
	 viewBox="-49 141 512 512" style="enable-background:new -49 141 512 512;" xml:space="preserve">
<style type="text/css">
	.st0{fill:#CCFFEB;}
	.st1{fill:#FFFFFE;}
	.st2{fill:#30E0A0;}
</style>
<path class="st0" d="M207,169.9C81.6,169.9-20.1,271.6-20.1,397S81.6,624.1,207,624.1S434.1,522.4,434.1,397S332.4,169.9,207,169.9
	C207,169.9,207,169.9,207,169.9z M207,504.5c-59.4,0-107.5-48.1-107.5-107.5S147.6,289.5,207,289.5S314.5,337.6,314.5,397
	S266.4,504.5,207,504.5L207,504.5z"/>
<path class="st0" d="M434.1,397c0-125.4-101.7-227.1-227.1-227.1l0,0c-2.8,0-5.7,0.1-8.5,0.2c-4.9,22.3-1.2,59.3,56.4,94.9
	c27.1,16.8,40.7,46,45.7,79.1c22.1,39.1,17.6,87.9-11.4,122.2c-10.1,33.4-23.8,58.4-34.2,62.6c-24.2,9.7-33.1,65.7-4.4,90.9
	C357.1,599,434.1,505.6,434.1,397z"/>
<path class="st1" d="M293,181.3l-55.8,122.4c-2.6,5.8-8.8,9.2-15.1,8.2c-10-1.8-20.2-1.8-30.3,0c-6.3,1-12.5-2.3-15.1-8.2L121,181.3
	c-3.3-7.2-0.2-15.7,7-18.9c0.5-0.2,0.9-0.4,1.4-0.5c50.4-16.6,104.9-16.6,155.3,0c7.5,2.5,11.5,10.6,8.9,18.1
	C293.4,180.4,293.3,180.9,293,181.3z"/>
<path class="st1" d="M422.7,483l-122.4-55.8c-5.8-2.6-9.2-8.8-8.2-15.1c1.8-10,1.8-20.2,0-30.3c-1-6.3,2.3-12.5,8.2-15.1l122.4-55.8
	c7.2-3.3,15.7-0.2,18.9,7c0.2,0.5,0.4,0.9,0.5,1.4c16.6,50.4,16.6,104.9,0,155.3c-2.5,7.5-10.6,11.5-18.1,8.9
	C423.6,483.4,423.1,483.3,422.7,483L422.7,483z"/>
<path class="st1" d="M121,612.7l55.8-122.4c2.6-5.8,8.8-9.2,15.1-8.2c10,1.8,20.2,1.8,30.3,0c6.3-1,12.5,2.3,15.1,8.2l55.8,122.4
	c3.3,7.2,0.2,15.7-7,18.9c-0.5,0.2-0.9,0.4-1.4,0.5c-50.4,16.6-104.9,16.6-155.3,0c-7.5-2.5-11.5-10.6-8.9-18.1
	C120.6,613.6,120.7,613.1,121,612.7L121,612.7z"/>
<path class="st1" d="M-8.7,311l122.4,55.8c5.8,2.6,9.2,8.8,8.2,15.1c-1.8,10-1.8,20.2,0,30.3c1,6.3-2.3,12.5-8.2,15.1L-8.7,483
	c-7.2,3.3-15.7,0.2-18.9-7c-0.2-0.5-0.4-0.9-0.5-1.4c-16.6-50.4-16.6-104.9,0-155.3c2.5-7.5,10.6-11.5,18.1-8.9
	C-9.6,310.6-9.1,310.7-8.7,311L-8.7,311z"/>
<g>
	<path class="st2" d="M313.8,206.1l0.9,0.5l1.6,0.9c4,2.3,9.2,1,11.5-3.1c2.3-4,1-9.2-3.1-11.5l-1-0.5l-1.6-0.9
		c-4-2.3-9.2-0.9-11.5,3.1C308.4,198.7,309.7,203.8,313.8,206.1L313.8,206.1z"/>
	<path class="st2" d="M102.2,241.9c1.6,0,3.2-0.5,4.6-1.3c1.4-0.9,2.8-1.8,4.2-2.6c4-2.4,5.3-7.6,2.9-11.6c-2.4-4-7.6-5.3-11.6-2.9
		c-1.5,0.9-3.1,1.9-4.6,2.9c-3.9,2.5-5,7.7-2.5,11.6C96.6,240.5,99.3,241.9,102.2,241.9L102.2,241.9z"/>
	<path class="st2" d="M87.3,254.9c3.6-3,4-8.3,1-11.9c-3-3.6-8.3-4-11.9-1l0,0c-14.3,12-26.9,26-37.3,41.5
		c-2.6,3.9-1.6,9.1,2.3,11.7s9.1,1.6,11.7-2.3C62.7,278.7,74.2,265.9,87.3,254.9z"/>
	<path class="st2" d="M450.1,316.7c-3.8-11.5-16-17.9-27.7-14.5c-16.6-37.7-42.7-70.3-75.8-94.8c-3.7-2.8-9-2.1-11.8,1.6
		c-2.8,3.7-2.1,9,1.6,11.8c0.1,0,0.1,0.1,0.2,0.1c30.7,22.7,54.9,53,70.3,87.9l-63.5,28.9c-15-34.6-42.6-62.3-77.3-77.3l34.5-75.7
		c2.7-5.9,2.7-12.7,0.1-18.6c-2.6-5.9-7.5-10.4-13.6-12.4c-52.2-17.1-108.4-17.1-160.6,0c-11.5,3.8-17.9,16-14.6,27.6
		C58.3,205.3,15.3,248.3-8.6,302.1c-11.6-3.3-23.8,3.1-27.6,14.6c-17.1,52.2-17.1,108.4,0,160.6c2,6.1,6.5,11,12.4,13.6
		c4.8,2.1,10.2,2.5,15.2,1c23.8,53.8,66.8,96.9,120.7,120.7c-3.4,11.6,3.1,23.8,14.5,27.6c52.2,17.1,108.4,17.1,160.6,0
		c6.1-2,11-6.5,13.6-12.4c2.1-4.8,2.4-10.2,1-15.2c45.4-20.1,83.4-54,108.6-96.8c2.4-4,1.1-9.2-2.9-11.6s-9.2-1.1-11.6,2.9
		c0,0-0.1,0.1-0.1,0.1c-23.3,39.7-58.5,71.2-100.7,89.9l-29-63.6c34.6-15,62.3-42.6,77.2-77.3l75.7,34.5
		c11.4,5.2,24.9,0.2,30.1-11.2c0.3-0.7,0.6-1.5,0.9-2.2C467.3,425.2,467.3,368.9,450.1,316.7L450.1,316.7z M328.2,344.8l-31.4,14.3
		c-9.4,4.2-14.7,14.2-13,24.3c1.6,9,1.6,18.3,0,27.3c-1.7,10.1,3.6,20.1,13,24.3l1.4,0.6c-10.1,23.7-28.9,42.5-52.6,52.6l-0.6-1.4
		c-4.2-9.4-14.2-14.7-24.3-13c-9,1.6-18.3,1.6-27.3,0c-10.1-1.7-20.1,3.6-24.3,13l-0.7,1.4c-23.7-10.1-42.5-29-52.6-52.7l1.4-0.6
		c9.4-4.2,14.7-14.2,13-24.3c-1.6-9-1.6-18.3,0-27.3c1.7-10.1-3.6-20.1-13-24.3l-1.4-0.7c10-23.8,28.9-42.6,52.7-52.6l0.6,1.4
		c3.6,8.1,11.6,13.3,20.5,13.3c1.3,0,2.6-0.1,3.8-0.3c9-1.6,18.3-1.6,27.3,0c10.1,1.7,20.1-3.6,24.3-13l0.7-1.4
		c15.2,6.4,28.6,16.6,38.9,29.5c2.8,3.7,8.1,4.4,11.8,1.5c3.7-2.8,4.4-8.1,1.5-11.8c-0.1-0.1-0.1-0.1-0.2-0.2
		c-12-15-27.4-26.8-45.1-34.4l6.6-14.6C290.2,289.2,314.8,313.8,328.2,344.8L328.2,344.8z M100.4,351.4l-14.6-6.7
		c13.3-31,38-55.6,68.9-68.9l6.7,14.6C134,302.1,112.1,324,100.4,351.4z M128.6,173c0.6-1.5,1.9-2.6,3.4-3.1c48.7-16,101.3-16,150,0
		c1.5,0.5,2.8,1.7,3.4,3.1c0.7,1.6,0.7,3.3,0,4.9l-55.8,122.4c-1,2.4-3.5,3.7-6,3.4c-11-1.9-22.2-1.9-33.2,0c-2.5,0.3-5-1-6-3.4
		l-55.8-122.4C127.9,176.3,127.9,174.5,128.6,173L128.6,173z M118.8,196.9l29,63.6c-34.6,15-62.3,42.6-77.3,77.3l-63.6-29
		C29,258.9,68.9,219,118.8,196.9L118.8,196.9z M118.8,597c-49.9-22.1-89.7-62-111.9-111.8l19.4-8.9c4.2-1.9,6.1-6.9,4.2-11.2
		c-1.9-4.2-6.9-6.1-11.2-4.2l0,0l-31.5,14.4c-1.5,0.7-3.3,0.7-4.9,0c-1.5-0.6-2.6-1.9-3.1-3.4c-16-48.7-16-101.3,0-150
		c0.5-1.5,1.7-2.8,3.1-3.4c1.6-0.7,3.3-0.7,4.9,0l122.4,55.8c2.3,1,3.7,3.5,3.4,6c-1.9,11-1.9,22.2,0,33.2c0.3,2.5-1,5-3.4,6l-33,15
		c-4.2,2.1-5.9,7.1-3.8,11.3c2,4,6.7,5.8,10.8,4l16.3-7.4c11.8,27.4,33.6,49.2,61,61l-6.6,14.6c-20.9-9-39.2-23.3-53-41.5
		c-2.8-3.7-8-4.6-11.8-1.8c-3.7,2.8-4.6,8-1.8,11.8c0,0.1,0.1,0.1,0.1,0.2c15.5,20.4,35.9,36.5,59.4,46.7L118.8,597z M285.4,616.1
		c0.7,1.5,0.7,3.3,0,4.9c-0.6,1.5-1.9,2.6-3.4,3.1c-48.7,16-101.3,16-150,0c-1.5-0.5-2.8-1.7-3.4-3.1c-0.7-1.6-0.7-3.3,0-4.9
		l55.8-122.4c0.9-2.1,2.9-3.4,5.2-3.5c0.3,0,0.6,0,0.8,0.1c11,1.9,22.2,1.9,33.2,0c2.5-0.3,5,1,6,3.4L285.4,616.1z M259.2,518.1
		l-6.7-14.6c27.4-11.8,49.2-33.6,61-61l14.6,6.7C314.8,480.2,290.2,504.8,259.2,518.1z M434.2,472c-0.5,1.5-1.7,2.8-3.1,3.4
		c-1.5,0.7-3.3,0.7-4.9,0l-122.4-55.8c-2.3-1-3.7-3.5-3.4-6c1.9-11,1.9-22.2,0-33.2c-0.3-2.5,1-5,3.4-6l122.4-55.8
		c0.8-0.4,1.6-0.5,2.5-0.5c0.8,0,1.6,0.2,2.4,0.5c1.5,0.6,2.6,1.9,3.1,3.4C450.2,370.7,450.2,423.3,434.2,472L434.2,472z"/>
	<path class="st2" d="M50,447l-2.9,1.3c-4.2,1.9-6.1,6.9-4.2,11.1c1.9,4.2,6.9,6.1,11.1,4.2c0,0,0.1,0,0.1,0l2.9-1.3
		c4.2-1.9,6.1-6.9,4.2-11.1C59.3,447,54.3,445.1,50,447C50.1,447,50,447,50,447z"/>
</g>
</svg>
