<?xml version="1.0" encoding="utf-8"?>
<!-- Generator: Adobe Illustrator 19.0.0, SVG Export Plug-In . SVG Version: 6.00 Build 0)  -->
<svg version="1.1" id="Layer_1" xmlns="http://www.w3.org/2000/svg" xmlns:xlink="http://www.w3.org/1999/xlink" x="0px" y="0px"
	 viewBox="-49 141 512 512" style="enable-background:new -49 141 512 512;" xml:space="preserve">
<style type="text/css">
	.st0{fill:#CCFFEB;}
	.st1{fill:#30E0A0;}
</style>
<g>
	<g>
		<path class="st0" d="M70.5,286.1h273.1v68.3H70.5V286.1z"/>
		<path class="st0" d="M70.5,388.5h119.5v68.3H70.5V388.5z"/>
		<path class="st0" d="M317.9,149.5v68.3c0,9.4,7.6,17.1,17.1,17.1h59.7v-8.5L317.9,149.5z"/>
	</g>
	<g>
		<path class="st1" d="M395.8,215.5l-66.8-67c-4.8-4.8-11.3-7.5-18.1-7.5H36.3c-14.1,0-25.6,11.5-25.6,25.6v460.8
			c0,14.1,11.5,25.6,25.6,25.6h341.3c14.1,0,25.6-11.5,25.6-25.6V233.6C403.3,226.8,400.6,220.3,395.8,215.5z M386.2,627.4
			c0,4.7-3.8,8.5-8.5,8.5H36.3c-4.7,0-8.5-3.8-8.5-8.5V166.6c0-4.7,3.8-8.5,8.5-8.5h273.1v59.7c0,14.1,11.5,25.6,25.6,25.6h34.1
			v-17.1H335c-4.7,0-8.5-3.8-8.5-8.5v-47.6l57.2,57.4c1.6,1.6,2.5,3.8,2.5,6V627.4z"/>
		<path class="st1" d="M61.9,192.2H79v17.1H61.9V192.2z"/>
		<path class="st1" d="M96.1,192.2h170.7v17.1H96.1V192.2z"/>
		<path class="st1" d="M61.9,226.3h204.8v17.1H61.9V226.3z"/>
		<path class="st1" d="M343.5,277.5H70.5c-4.7,0-8.5,3.8-8.5,8.5v68.3c0,4.7,3.8,8.5,8.5,8.5h273.1c4.7,0,8.5-3.8,8.5-8.5v-68.3
			C352.1,281.4,348.2,277.5,343.5,277.5z M335,345.8H79v-51.2h256V345.8z"/>
		<path class="st1" d="M189.9,379.9H70.5c-4.7,0-8.5,3.8-8.5,8.5v68.3c0,4.7,3.8,8.5,8.5,8.5h119.5c4.7,0,8.5-3.8,8.5-8.5v-68.3
			C198.5,383.8,194.6,379.9,189.9,379.9z M181.4,448.2H79V397h102.4V448.2z"/>
		<path class="st1" d="M343.5,379.9H224.1c-4.7,0-8.5,3.8-8.5,8.5v68.3c0,4.7,3.8,8.5,8.5,8.5h119.5c4.7,0,8.5-3.8,8.5-8.5v-68.3
			C352.1,383.8,348.2,379.9,343.5,379.9z M335,448.2H232.6V397H335V448.2z"/>
		<path class="st1" d="M61.9,482.3H79v17.1H61.9V482.3z"/>
		<path class="st1" d="M96.1,482.3h102.4v17.1H96.1V482.3z"/>
		<path class="st1" d="M215.5,482.3h17.1v17.1h-17.1V482.3z"/>
		<path class="st1" d="M249.7,482.3h102.4v17.1H249.7V482.3z"/>
		<path class="st1" d="M61.9,516.5h136.5v17.1H61.9V516.5z"/>
		<path class="st1" d="M61.9,550.6h136.5v17.1H61.9V550.6z"/>
		<path class="st1" d="M61.9,584.7h136.5v17.1H61.9V584.7z"/>
		<path class="st1" d="M215.5,550.6h136.5v17.1H215.5V550.6z"/>
		<path class="st1" d="M215.5,584.7h136.5v17.1H215.5V584.7z"/>
		<path class="st1" d="M215.5,516.5h136.5v17.1H215.5V516.5z"/>
	</g>
</g>
</svg>
